<?xml version="1.0" encoding="UTF-8"?>
<svg version="1.1" xmlns="http://www.w3.org/2000/svg" width="384" height="384">
<path d="M0 0 C1.01562012 0.25249512 2.03124023 0.50499023 3.07763672 0.76513672 C26.22211728 6.73050032 48.85425944 16.54823744 68 31 C68.57959473 31.42990234 69.15918945 31.85980469 69.75634766 32.30273438 C107.23829523 60.24845855 132.49782578 98.67453087 144 144 C144.2386377 144.93763184 144.47727539 145.87526367 144.72314453 146.84130859 C151.11821168 173.49297711 150.71032434 205.47518411 144 232 C143.74750488 233.01562012 143.49500977 234.03124023 143.23486328 235.07763672 C137.26949968 258.22211728 127.45176256 280.85425944 113 300 C112.57009766 300.57959473 112.14019531 301.15918945 111.69726562 301.75634766 C83.75154145 339.23829523 45.32546913 364.49782578 0 376 C-0.93763184 376.2386377 -1.87526367 376.47727539 -2.84130859 376.72314453 C-29.49297711 383.11821168 -61.47518411 382.71032434 -88 376 C-89.01562012 375.74750488 -90.03124023 375.49500977 -91.07763672 375.23486328 C-114.22211728 369.26949968 -136.85425944 359.45176256 -156 345 C-156.57959473 344.57009766 -157.15918945 344.14019531 -157.75634766 343.69726562 C-195.23829523 315.75154145 -220.49782578 277.32546913 -232 232 C-232.2386377 231.06236816 -232.47727539 230.12473633 -232.72314453 229.15869141 C-239.11821168 202.50702289 -238.71032434 170.52481589 -232 144 C-231.74750488 142.98437988 -231.49500977 141.96875977 -231.23486328 140.92236328 C-225.26949968 117.77788272 -215.45176256 95.14574056 -201 76 C-200.57009766 75.42040527 -200.14019531 74.84081055 -199.69726562 74.24365234 C-171.75154145 36.76170477 -133.32546913 11.50217422 -88 0 C-87.06236816 -0.2386377 -86.12473633 -0.47727539 -85.15869141 -0.72314453 C-58.50702289 -7.11821168 -26.52481589 -6.71032434 0 0 Z " fill="#F9FAEC" transform="translate(236,4)"/>
<path d="M0 0 C4.92265695 2.2855193 7.81049249 5.71694706 11 10 C12.5456757 14.63702711 12.05735628 19.12471651 12 24 C18.27 24 24.54 24 31 24 C29.02 25.485 29.02 25.485 27 27 C26.34 27.66 25.68 28.32 25 29 C26.25151855 29.30321167 26.25151855 29.30321167 27.52832031 29.61254883 C31.10909871 30.7324031 33.90513984 31.86446164 37 34 C39.10500113 38.43510789 39.39891808 42.83003091 39.75 47.6875 C39.88664063 48.91662109 40.02328125 50.14574219 40.1640625 51.41210938 C40.88204517 58.28056601 41.18009499 65.09735938 41 72 C42.299375 72.0928125 42.299375 72.0928125 43.625 72.1875 C48.30629032 73.3144773 51.59739803 75.74548206 54.1640625 79.87109375 C55.12543693 82.31945385 55.20204962 84.13031299 55.125 86.75 C55.10695312 87.54921875 55.08890625 88.3484375 55.0703125 89.171875 C55.04710937 89.77515625 55.02390625 90.3784375 55 91 C55.928125 90.835 56.85625 90.67 57.8125 90.5 C61.14775 90.01214346 64.39248259 89.94865016 67.76171875 89.96875 C68.74487061 89.97326172 69.72802246 89.97777344 70.7409668 89.98242188 C71.85918823 89.99112305 71.85918823 89.99112305 73 90 C73.08547592 90.74724335 73.17095184 91.49448669 73.25901794 92.26437378 C74.06431974 99.29850798 74.87323889 106.33221445 75.68624783 113.36546135 C76.10411797 116.98153242 76.52057615 120.59775459 76.93383789 124.21435547 C77.33253793 127.70306546 77.73490711 131.19133427 78.13984871 134.6793251 C78.3689421 136.66107483 78.5942107 138.64326548 78.81944275 140.62545776 C78.95951248 141.82655182 79.09958221 143.02764587 79.24389648 144.26513672 C79.36603012 145.32658905 79.48816376 146.38804138 79.61399841 147.48165894 C79.86656503 149.98857948 79.86656503 149.98857948 81 152 C81.06996014 153.70702735 81.08440154 155.41668003 81.0625 157.125 C81.05347656 158.03507813 81.04445313 158.94515625 81.03515625 159.8828125 C81.01775391 160.93082031 81.01775391 160.93082031 81 162 C91.78157255 152.68864189 96.93814585 130.49439646 98 117 C99.47231221 86.63356065 92.43546362 59.08796438 72 36 C71.44957031 35.30648437 70.89914062 34.61296875 70.33203125 33.8984375 C63.53621475 25.474981 54.41295492 19.18187922 45 14 C45 13.01 45 12.02 45 11 C54.99484646 12.4151995 62.9554821 21.33720475 70 28 C70.71285156 28.66 71.42570313 29.32 72.16015625 30 C90.95387454 47.96085601 101.46902176 74.40947521 102.23828125 100.125 C102.44611636 113.0925944 102.2192382 124.67320603 98 137 C97.62617188 138.19367188 97.25234375 139.38734375 96.8671875 140.6171875 C94.06363658 149.1021065 90.49040618 159.18958786 84.30078125 165.8203125 C82.2278187 169.29392542 82.68452342 172.79257049 82.8125 176.75 C82.82603516 177.54277344 82.83957031 178.33554687 82.85351562 179.15234375 C82.88874777 181.10185564 82.94255179 183.05101626 83 185 C81.94683594 185.08894531 80.89367187 185.17789063 79.80859375 185.26953125 C70.26852872 186.35157811 64.07759871 188.67184191 56.59082031 194.66601562 C47.35085753 202.04437623 36.88604584 206.56787538 25.75 210.375 C25.05414795 210.61387939 24.3582959 210.85275879 23.64135742 211.09887695 C-2.37985838 219.47941306 -31.94498794 216.35634163 -56.14892578 203.99755859 C-63.55263176 200.00764266 -70.3799051 195.61647253 -76.375 189.6875 C-84.07978451 183.12270912 -96.31288176 183.13830002 -106 182 C-105.85470122 180.08329274 -105.70872231 178.16663703 -105.5625 176.25 C-105.48257813 175.05246094 -105.40265625 173.85492188 -105.3203125 172.62109375 C-105 169 -105 169 -104.4296875 166.09765625 C-103.18930652 159.07867497 -104.69842088 154.61829163 -107.6875 148.375 C-119.21975893 124.22657583 -119.47165867 95.16137549 -110.71923828 70.01074219 C-104.76917091 53.37640584 -96.23661077 40.5368957 -84 28 C-83.40703125 27.34515625 -82.8140625 26.6903125 -82.203125 26.015625 C-78.63850838 22.16866251 -74.59539204 19.13131772 -70.3125 16.125 C-69.75320801 15.73094971 -69.19391602 15.33689941 -68.61767578 14.9309082 C-65.8130118 13.01924856 -63.38777077 11.51105058 -60 11 C-60 11.99 -60 12.98 -60 14 C-62.09180824 15.66982963 -64.15196547 17.15009935 -66.375 18.625 C-92.02978172 36.34664841 -105.22251975 60.823037 -111.59375 90.79296875 C-114.04466161 110.14103059 -111.80573436 131.38853127 -103 149 C-100.69722099 134.46167 -100.69722099 134.46167 -99.25976562 119.81884766 C-99.0274332 117.29769145 -98.63821835 114.92684549 -98.1328125 112.44921875 C-96.28335161 102.56738517 -95.29212856 92.53896273 -94.10180664 82.56103516 C-93.77847668 79.86055686 -93.45003203 77.16073746 -93.12109375 74.4609375 C-93.02316025 73.62565521 -92.92522675 72.79037292 -92.82432556 71.92977905 C-92.11307336 66.11307336 -92.11307336 66.11307336 -91 65 C-88.77270128 64.89969781 -86.54205117 64.87034054 -84.3125 64.875 C-82.48138672 64.87113281 -82.48138672 64.87113281 -80.61328125 64.8671875 C-77.31209715 64.98852832 -74.2385982 65.37317454 -71 66 C-71.02320313 65.34773438 -71.04640625 64.69546875 -71.0703125 64.0234375 C-71.203313 57.58241318 -70.8511985 52.84291199 -67.25 47.3125 C-64.07156867 44.04577892 -61.25090234 42.16946237 -56.61328125 41.8203125 C-54.39975986 41.81336267 -52.20920187 41.86744789 -50 42 C-50 39.36 -50 36.72 -50 34 C-46.04 32.35 -42.08 30.7 -38 29 C-39.65 27.35 -41.3 25.7 -43 24 C-37.06 24 -31.12 24 -25 24 C-25.103125 22.35 -25.20625 20.7 -25.3125 19 C-25.3125 13.05992857 -23.87028472 9.45924109 -20 5 C-13.6916875 -0.72149273 -8.33537877 -0.72172182 0 0 Z " fill="#F9CF5F" transform="translate(199,78)"/>
<path d="M0 0 C9.99484646 1.4151995 17.9554821 10.33720475 25 17 C25.71285156 17.66 26.42570313 18.32 27.16015625 19 C45.95387454 36.96085601 56.46902176 63.40947521 57.23828125 89.125 C57.44611636 102.0925944 57.2192382 113.67320603 53 126 C52.62617188 127.19367188 52.25234375 128.38734375 51.8671875 129.6171875 C49.06363658 138.1021065 45.49040618 148.18958786 39.30078125 154.8203125 C37.2278187 158.29392542 37.68452342 161.79257049 37.8125 165.75 C37.82603516 166.54277344 37.83957031 167.33554687 37.85351562 168.15234375 C37.88874777 170.10185564 37.94255179 172.05101626 38 174 C36.94683594 174.08894531 35.89367187 174.17789063 34.80859375 174.26953125 C25.26852872 175.35157811 19.07759871 177.67184191 11.59082031 183.66601562 C2.35085753 191.04437623 -8.11395416 195.56787538 -19.25 199.375 C-19.94585205 199.61387939 -20.6417041 199.85275879 -21.35864258 200.09887695 C-47.37985838 208.47941306 -76.94498794 205.35634163 -101.14892578 192.99755859 C-110.37379576 188.02620292 -119.21921876 182.02780241 -127 175 C-127 174.67 -127 174.34 -127 174 C-123.75 173.6875 -123.75 173.6875 -120 174 C-118.64504724 175.64913874 -117.31471717 177.31860941 -116 179 C-93.83724159 195.31025511 -65.10979096 203.22075963 -37.80932617 199.22851562 C-19.61244826 196.19674952 -3.21320292 189.37263836 12 179 C3.98561223 179.85908811 -3.99798106 180.82667169 -11.96484375 182.05859375 C-13.16713623 182.24389648 -14.36942871 182.42919922 -15.6081543 182.62011719 C-18.0131395 182.99480282 -20.41699463 183.37682435 -22.81958008 183.76660156 C-24.49443481 184.02715332 -24.49443481 184.02715332 -26.203125 184.29296875 C-27.19989258 184.4530542 -28.19666016 184.61313965 -29.22363281 184.77807617 C-32.08389842 185.00670627 -34.24952462 184.79389268 -37 184 C-38.484375 182.40625 -38.484375 182.40625 -39.75 180.5 C-42.10682809 177.57218779 -43.77886076 176.33676153 -47.5 175.625 C-50.43685668 175.48113371 -51.57118742 175.65248314 -53.875 177.51953125 C-55.36986519 179.28390339 -56.67758306 181.10611002 -58 183 C-58.33 183 -58.66 183 -59 183 C-59.08432108 166.80366082 -58.85966881 150.61143986 -58.62768555 134.41723633 C-58.58414184 131.37070916 -58.54248108 128.32416631 -58.50268555 125.27758789 C-58.22667024 104.17566041 -57.73773271 83.09105967 -57 62 C-56.67 62 -56.34 62 -56 62 C-54.69428674 69.91856313 -53.3902858 77.83740549 -52.08848572 85.75661278 C-51.48399049 89.433585 -50.87890011 93.11045723 -50.27246094 96.78710938 C-49.68752009 100.33355902 -49.10412776 103.88026019 -48.52182007 107.4271431 C-48.299097 108.78205107 -48.07581081 110.13686661 -47.85195923 111.49158859 C-47.53915001 113.38526195 -47.22850669 115.2792927 -46.91796875 117.17333984 C-46.74031982 118.25255707 -46.5626709 119.33177429 -46.37963867 120.44369507 C-46 123 -46 123 -46 125 C-45.34 125 -44.68 125 -44 125 C-43.97421875 124.35160156 -43.9484375 123.70320313 -43.921875 123.03515625 C-43.45104806 114.89199031 -42.29108194 106.92470025 -41 98.875 C-40.82178711 97.7600415 -40.64357422 96.64508301 -40.45996094 95.49633789 C-39.13586446 87.40759338 -39.13586446 87.40759338 -38 84 C-30.29928525 83.24739961 -22.73773151 82.89818774 -15 83 C-15 86.96 -15 90.92 -15 95 C-14.34 95 -13.68 95 -13 95 C-13 90.71 -13 86.42 -13 82 C-8.05 81.67 -3.1 81.34 2 81 C1.9175 78.958125 1.835 76.91625 1.75 74.8125 C1.70359375 73.66394531 1.6571875 72.51539063 1.609375 71.33203125 C0.91174 67.51739886 -0.37251591 65.79038811 -3 63 C0.51653861 63.31968533 2.53431968 63.62242136 5.3125 65.875 C7.97936433 69.23327361 8.12160522 71.96229695 8.09765625 76.10546875 C8.09443359 77.08837891 8.09121094 78.07128906 8.08789062 79.08398438 C8.07951172 80.10814453 8.07113281 81.13230469 8.0625 82.1875 C8.05798828 83.22326172 8.05347656 84.25902344 8.04882812 85.32617188 C8.0370401 87.88417266 8.02058515 90.44205733 8 93 C8.66 93 9.32 93 10 93 C10 88.71 10 84.42 10 80 C14.30892856 79.23396826 18.37999434 78.94260996 22.76171875 78.96875 C23.74487061 78.97326172 24.72802246 78.97777344 25.7409668 78.98242188 C26.85918823 78.99112305 26.85918823 78.99112305 28 79 C28.08547592 79.74724335 28.17095184 80.49448669 28.25901794 81.26437378 C29.06431974 88.29850798 29.87323889 95.33221445 30.68624783 102.36546135 C31.10411797 105.98153242 31.52057615 109.59775459 31.93383789 113.21435547 C32.33253793 116.70306546 32.73490711 120.19133427 33.13984871 123.6793251 C33.3689421 125.66107483 33.5942107 127.64326548 33.81944275 129.62545776 C33.95951248 130.82655182 34.09958221 132.02764587 34.24389648 133.26513672 C34.36603012 134.32658905 34.48816376 135.38804138 34.61399841 136.48165894 C34.86656503 138.98857948 34.86656503 138.98857948 36 141 C36.06996014 142.70702735 36.08440154 144.41668003 36.0625 146.125 C36.05347656 147.03507813 36.04445313 147.94515625 36.03515625 148.8828125 C36.01775391 149.93082031 36.01775391 149.93082031 36 151 C46.78157255 141.68864189 51.93814585 119.49439646 53 106 C54.47231221 75.63356065 47.43546362 48.08796438 27 25 C26.44957031 24.30648437 25.89914062 23.61296875 25.33203125 22.8984375 C18.53621475 14.474981 9.41295492 8.18187922 0 3 C0 2.01 0 1.02 0 0 Z " fill="#E47F22" transform="translate(244,89)"/>
<path d="M0 0 C4.92265695 2.2855193 7.81049249 5.71694706 11 10 C12.5456757 14.63702711 12.05735628 19.12471651 12 24 C18.27 24 24.54 24 31 24 C29.68 24.99 28.36 25.98 27 27 C26.34 27.66 25.68 28.32 25 29 C25.8343457 29.20214111 26.66869141 29.40428223 27.52832031 29.61254883 C31.10909871 30.7324031 33.90513984 31.86446164 37 34 C39.10500113 38.43510789 39.39891808 42.83003091 39.75 47.6875 C39.95496094 49.53118164 39.95496094 49.53118164 40.1640625 51.41210938 C40.88204517 58.28056601 41.18009499 65.09735938 41 72 C42.299375 72.0928125 42.299375 72.0928125 43.625 72.1875 C48.29844036 73.31258749 51.5767252 75.73834143 54.15966797 79.84277344 C55.16885314 82.43346494 55.22760196 84.42623172 55.1953125 87.203125 C55.18886719 88.1828125 55.18242187 89.1625 55.17578125 90.171875 C55.15064453 91.69554687 55.15064453 91.69554687 55.125 93.25 C55.11597656 94.28125 55.10695313 95.3125 55.09765625 96.375 C55.07412011 98.91690287 55.04124023 101.4583328 55 104 C54.34 104 53.68 104 53 104 C52.98541748 103.35973877 52.97083496 102.71947754 52.95581055 102.05981445 C52.88108618 99.14345169 52.78450707 96.22820313 52.6875 93.3125 C52.66494141 92.30509766 52.64238281 91.29769531 52.61914062 90.25976562 C52.46308769 83.09917901 52.46308769 83.09917901 49 77 C46.42900598 75.65310085 46.42900598 75.65310085 44 75 C44.73669922 75.78117187 44.73669922 75.78117187 45.48828125 76.578125 C47.49150262 79.78742022 47.3000233 81.99922336 47.1875 85.75 C47.14689453 87.50570312 47.14689453 87.50570312 47.10546875 89.296875 C47.07066406 90.18890625 47.03585938 91.0809375 47 92 C42.05392242 93.49559965 37.12641556 93.06102876 32 93 C32 97.29 32 101.58 32 106 C31.34 106 30.68 106 30 106 C30 102.04 30 98.08 30 94 C28.4325 94.165 26.865 94.33 25.25 94.5 C19.15607127 95.06263841 13.11492685 95.09604597 7 95 C6.88724731 95.8504187 6.88724731 95.8504187 6.7722168 96.71801758 C5.02514289 109.84286075 3.1277921 122.9314329 1 136 C0.34 136 -0.32 136 -1 136 C-2.66665114 128.84309321 -3.9625259 121.6623971 -5.1640625 114.4140625 C-5.45946426 112.64595718 -5.45946426 112.64595718 -5.76083374 110.84213257 C-6.17378255 108.36647109 -6.58551586 105.89060658 -6.99609375 103.41455078 C-7.62656111 99.61559333 -8.26225109 95.81753468 -8.8984375 92.01953125 C-9.2997914 89.60942698 -9.70084375 87.19927246 -10.1015625 84.7890625 C-10.2921524 83.65159576 -10.48274231 82.51412903 -10.67910767 81.3421936 C-10.85283905 80.29034882 -11.02657043 79.23850403 -11.20556641 78.15478516 C-11.35941803 77.22928864 -11.51326965 76.30379211 -11.67178345 75.35025024 C-12 73 -12 73 -12 70 C-18.6 69.67 -25.2 69.34 -32 69 C-32.6875 60.3125 -32.6875 60.3125 -32.8659668 57.6027832 C-33.26679564 53.41264161 -33.72511209 51.36329407 -36.33203125 47.91796875 C-38.99367047 45.61086031 -38.99367047 45.61086031 -43 46 C-42.525625 46.721875 -42.05125 47.44375 -41.5625 48.1875 C-36.12996849 57.96605672 -39.1765991 72.236974 -40 83 C-40.66 83 -41.32 83 -42 83 C-42.06731323 81.72153198 -42.06731323 81.72153198 -42.13598633 80.41723633 C-42.30978083 77.23893954 -42.49568898 74.06164349 -42.68969727 70.88452148 C-42.77101877 69.51240305 -42.8475824 68.13999367 -42.91918945 66.76733398 C-43.02327928 64.78819147 -43.14621221 62.81006871 -43.26953125 60.83203125 C-43.33760986 59.64327393 -43.40568848 58.4545166 -43.47583008 57.22973633 C-44.19392921 52.80508175 -45.86190267 50.13809733 -49 47 C-52.41022305 47.08974271 -53.69988871 47.69767387 -56.1171875 50.1328125 C-58.36541364 53.55645978 -58.58588219 55.75058427 -58.75 59.8125 C-58.80671875 60.97394531 -58.8634375 62.13539063 -58.921875 63.33203125 C-58.94765625 64.21246094 -58.9734375 65.09289062 -59 66 C-59.66 66 -60.32 66 -61 66 C-61.10883596 63.62374823 -61.18766696 61.25256024 -61.25 58.875 C-61.28351563 58.20984375 -61.31703125 57.5446875 -61.3515625 56.859375 C-61.45638928 51.51320929 -60.19826227 49.04189838 -57 45 C-60.53508103 45.29459009 -61.76203444 45.74881413 -64.25 48.375 C-66.92084045 52.38126068 -67.16134845 55.48103147 -67.31640625 60.19921875 C-67.35830078 61.40771484 -67.40019531 62.61621094 -67.44335938 63.86132812 C-67.50233398 65.7552832 -67.50233398 65.7552832 -67.5625 67.6875 C-67.60568359 68.96173828 -67.64886719 70.23597656 -67.69335938 71.54882812 C-67.7995486 74.69910852 -67.90159533 77.84946839 -68 81 C-68.99 81 -69.98 81 -71 81 C-71.05831395 76.95839444 -71.09370212 72.91689795 -71.125 68.875 C-71.14175781 67.73289062 -71.15851563 66.59078125 -71.17578125 65.4140625 C-71.18222656 64.30546875 -71.18867187 63.196875 -71.1953125 62.0546875 C-71.20578613 61.03874512 -71.21625977 60.02280273 -71.22705078 58.97607422 C-70.79202308 53.27393695 -68.98261136 49.09323945 -65 45 C-60.04096075 41.65553167 -55.76219112 41.65426853 -50 42 C-50 39.36 -50 36.72 -50 34 C-46.04 32.35 -42.08 30.7 -38 29 C-39.65 27.35 -41.3 25.7 -43 24 C-37.06 24 -31.12 24 -25 24 C-25.1546875 21.525 -25.1546875 21.525 -25.3125 19 C-25.3125 13.05992857 -23.87028472 9.45924109 -20 5 C-13.6916875 -0.72149273 -8.33537877 -0.72172182 0 0 Z " fill="#9DD064" transform="translate(199,78)"/>
<path d="M0 0 C0.33 0 0.66 0 1 0 C2.30571326 7.91856313 3.6097142 15.83740549 4.91151428 23.75661278 C5.51600951 27.433585 6.12109989 31.11045723 6.72753906 34.78710938 C7.31247991 38.33355902 7.89587224 41.88026019 8.47817993 45.4271431 C8.700903 46.78205107 8.92418919 48.13686661 9.14804077 49.49158859 C9.46084999 51.38526195 9.77149331 53.2792927 10.08203125 55.17333984 C10.25968018 56.25255707 10.4373291 57.33177429 10.62036133 58.44369507 C11 61 11 61 11 63 C11.66 63 12.32 63 13 63 C13.02578125 62.32839844 13.0515625 61.65679687 13.078125 60.96484375 C13.72947097 49.49227271 15.91902197 38.2841359 18 27 C18.33 27 18.66 27 19 27 C19.99433385 35.07882548 20.21041334 43.10493048 20.31640625 51.23828125 C20.33707304 52.60858138 20.35807123 53.97887656 20.37937927 55.34916687 C20.42306939 58.21427378 20.46399942 61.0794013 20.50268555 63.94458008 C20.55141372 67.55036429 20.60511575 71.15605086 20.66065407 74.76173592 C20.90233826 90.50813702 21.0703213 106.25137733 21 122 C17.5 118.5 17.5 118.5 14 115 C10.95866749 113.97202961 8.18866343 113.57199149 5 114 C2.47086944 116.00658292 0.83473014 118.37240434 -1 121 C-1.33 121 -1.66 121 -2 121 C-2.08432108 104.80366082 -1.85966881 88.61143986 -1.62768555 72.41723633 C-1.58414184 69.37070916 -1.54248108 66.32416631 -1.50268555 63.27758789 C-1.22667024 42.17566041 -0.73773271 21.09105967 0 0 Z " fill="#AC8102" transform="translate(187,151)"/>
<path d="M0 0 C4.92265695 2.2855193 7.81049249 5.71694706 11 10 C12.5456757 14.63702711 12.05735628 19.12471651 12 24 C18.27 24 24.54 24 31 24 C29.68 24.99 28.36 25.98 27 27 C26.34 27.66 25.68 28.32 25 29 C30.445 31.475 30.445 31.475 36 34 C36 34.33 36 34.66 36 35 C28.08 35 20.16 35 12 35 C12 40.28 12 45.56 12 51 C11.01 51 10.02 51 9 51 C9 45.72 9 40.44 9 35 C-0.9 35 -10.8 35 -21 35 C-21 40.28 -21 45.56 -21 51 C-22.32 51 -23.64 51 -25 51 C-25 45.72 -25 40.44 -25 35 C-32.92 35 -40.84 35 -49 35 C-47.5836933 32.1673866 -45.85502707 31.98292167 -42.9375 30.875 C-42.01839844 30.52179688 -41.09929687 30.16859375 -40.15234375 29.8046875 C-39.44207031 29.53914063 -38.73179687 29.27359375 -38 29 C-39.65 27.35 -41.3 25.7 -43 24 C-37.06 24 -31.12 24 -25 24 C-25.103125 22.35 -25.20625 20.7 -25.3125 19 C-25.3125 13.05992857 -23.87028472 9.45924109 -20 5 C-13.6916875 -0.72149273 -8.33537877 -0.72172182 0 0 Z " fill="#455F3B" transform="translate(199,78)"/>
<path d="M0 0 C9.72524251 0.77184464 17.14421561 3.50191504 25.75 7.9375 C49.02845895 19.84445339 75.47459238 20.91164891 100.29296875 13.08984375 C102.57697988 12.1703068 104.72714301 11.16754243 106.92578125 10.06640625 C115.88528956 5.58210412 122.76779034 2.71527764 133 3 C119.01044637 18.39536662 92.14034018 25.18790741 72.2734375 26.1875 C47.70241471 26.59447346 20.74919832 19.7417084 2 3 C1.34 2.01 0.68 1.02 0 0 Z " fill="#F6F7E9" transform="translate(124,264)"/>
<path d="M0 0 C2.98981796 0.54092101 4.18903233 0.95315911 6.0625 3.3828125 C6.536875 4.12273437 7.01125 4.86265625 7.5 5.625 C9.09916394 7.93624355 9.09916394 7.93624355 11.5625 9.4375 C16.90492774 9.64753496 21.90682188 8.81262352 27.15087891 7.85742188 C30.97820161 7.19099192 34.82999277 6.76323539 38.6875 6.3125 C40.02365998 6.14499442 41.35962235 5.97589916 42.6953125 5.8046875 C44.11457031 5.62292969 44.11457031 5.62292969 45.5625 5.4375 C36.28215477 13.16326963 23.22250753 16.55927714 11.5625 18.4375 C10.49515625 18.63279297 10.49515625 18.63279297 9.40625 18.83203125 C-14.29690552 22.59842249 -37.53450849 16.04486118 -57.4375 3.4375 C-57.4375 3.1075 -57.4375 2.7775 -57.4375 2.4375 C-47.59006418 3.0651728 -37.92575521 4.47859614 -28.1875 6 C-26.6524019 6.23670557 -25.11724594 6.47303615 -23.58203125 6.70898438 C-19.86650775 7.28084563 -16.1517988 7.85773974 -12.4375 8.4375 C-12.1075 7.4475 -11.7775 6.4575 -11.4375 5.4375 C-10.9425 6.4275 -10.9425 6.4275 -10.4375 7.4375 C-9.94443359 6.66212891 -9.94443359 6.66212891 -9.44140625 5.87109375 C-6.72853628 2.11424672 -4.85266419 -0.18280584 0 0 Z " fill="#E5D155" transform="translate(196.4375,263.5625)"/>
<path d="M0 0 C0.33 0 0.66 0 1 0 C1.99433385 8.07882548 2.21041334 16.10493048 2.31640625 24.23828125 C2.33707304 25.60858138 2.35807123 26.97887656 2.37937927 28.34916687 C2.42306939 31.21427378 2.46399942 34.0794013 2.50268555 36.94458008 C2.55141372 40.55036429 2.60511575 44.15605086 2.66065407 47.76173592 C2.90233826 63.50813702 3.0703213 79.25137733 3 95 C-0.5 91.5 -0.5 91.5 -4 88 C-6.19704511 87.32348793 -6.19704511 87.32348793 -8.625 86.875 C-10.08333333 86.58333333 -11.54166667 86.29166667 -13 86 C-12.38590347 76.45792842 -11.03628598 67.08741796 -9.53125 57.65625 C-9.28812514 56.11361758 -9.04533349 54.57093262 -8.80285645 53.02819824 C-8.29782659 49.82078036 -7.78996242 46.61382964 -7.27978516 43.40722656 C-6.62658906 39.30127626 -5.97885043 35.19448856 -5.33298492 31.08737946 C-4.83349908 27.91300644 -4.33206269 24.7389442 -3.8299408 21.56498718 C-3.5903346 20.05000511 -3.35112365 18.53496046 -3.11231995 17.01985168 C-2.77920174 14.90942055 -2.44367563 12.79938664 -2.10742188 10.68945312 C-1.91724487 9.49098755 -1.72706787 8.29252197 -1.53112793 7.05773926 C-1.11488023 4.66137319 -0.63842795 2.34440006 0 0 Z " fill="#954D01" transform="translate(205,178)"/>
<path d="M0 0 C9.99484646 1.4151995 17.9554821 10.33720475 25 17 C26.06927734 17.99 26.06927734 17.99 27.16015625 19 C45.95387454 36.96085601 56.46902176 63.40947521 57.23828125 89.125 C57.44611636 102.0925944 57.2192382 113.67320603 53 126 C52.62617188 127.19367188 52.25234375 128.38734375 51.8671875 129.6171875 C48.38322702 140.16135929 43.38959919 149.9221762 37 159 C36.67 159 36.34 159 36 159 C35.64044758 154.10289605 36.45195247 151.64150109 39.125 147.5625 C52.97076382 124.76593937 56.77214076 96.74768649 51.03515625 70.7578125 C46.30569701 53.58898309 38.83769639 38.37421639 27 25 C26.44957031 24.30648437 25.89914062 23.61296875 25.33203125 22.8984375 C18.53621475 14.474981 9.41295492 8.18187922 0 3 C0 2.01 0 1.02 0 0 Z " fill="#4C6443" transform="translate(244,89)"/>
<path d="M0 0 C4.67319121 2.09487882 8.00057804 5.23287612 10 10 C10.47917342 13.80640192 10.37844258 17.5464232 10.25 21.375 C10.23195312 22.39722656 10.21390625 23.41945312 10.1953125 24.47265625 C10.14839491 26.98274749 10.08276729 29.49087764 10 32 C9.34 32 8.68 32 8 32 C7.98541748 31.35973877 7.97083496 30.71947754 7.95581055 30.05981445 C7.88108618 27.14345169 7.78450707 24.22820313 7.6875 21.3125 C7.66494141 20.30509766 7.64238281 19.29769531 7.61914062 18.25976562 C7.46308769 11.09917901 7.46308769 11.09917901 4 5 C1.42900598 3.65310085 1.42900598 3.65310085 -1 3 C-0.50886719 3.52078125 -0.01773438 4.0415625 0.48828125 4.578125 C2.49150262 7.78742022 2.3000233 9.99922336 2.1875 13.75 C2.16042969 14.92046875 2.13335937 16.0909375 2.10546875 17.296875 C2.07066406 18.18890625 2.03585938 19.0809375 2 20 C-2.94607758 21.49559965 -7.87358444 21.06102876 -13 21 C-13 25.29 -13 29.58 -13 34 C-13.66 34 -14.32 34 -15 34 C-15 30.04 -15 26.08 -15 22 C-17.64 22 -20.28 22 -23 22 C-23.86078151 8.03621113 -23.86078151 8.03621113 -20.75 4.25 C-14.31781129 -1.01269985 -8.11888817 -0.75524541 0 0 Z " fill="#526A42" transform="translate(244,150)"/>
<path d="M0 0 C0.99 0.33 1.98 0.66 3 1 C-0.1243468 4.44755509 -3.45470591 7.11374249 -7.25 9.8125 C-31.39627348 27.16156513 -43.53053811 51.27193915 -49.59375 79.79296875 C-52.17112616 100.13937096 -48.84155558 119.97575851 -40.82421875 138.75390625 C-39.80391478 141.53435545 -40.19817218 143.19360263 -41 146 C-55.99418029 127.57984974 -55.47946726 99.88394732 -53.6171875 77.671875 C-50.9983641 54.30753881 -38.06347093 33.45766653 -22 17 C-21.40703125 16.34515625 -20.8140625 15.6903125 -20.203125 15.015625 C-14.66889285 9.04303783 -7.2877715 3.64388575 0 0 Z " fill="#4D6543" transform="translate(137,89)"/>
<path d="M0 0 C3.25 -0.3125 3.25 -0.3125 7 0 C8.35495276 1.64913874 9.68528283 3.31860941 11 5 C33.16275841 21.31025511 61.89020904 29.22075963 89.19067383 25.22851562 C106.89518117 22.27878296 125.63151138 16.08580216 139.2890625 4.03125 C141.58817515 2.64548347 143.36757725 2.82031244 146 3 C130.87631619 19.63605219 105.89829374 28.53398711 83.94091797 30.23730469 C52.1615381 31.6258472 23.77761302 22.4765537 0 1 C0 0.67 0 0.34 0 0 Z " fill="#4F6746" transform="translate(117,263)"/>
<path d="M0 0 C1.43859375 0.00580078 1.43859375 0.00580078 2.90625 0.01171875 C5.5 0.3125 5.5 0.3125 8.5 2.3125 C7.5 3.3125 7.5 3.3125 4.99609375 3.41015625 C3.48208984 3.39275391 3.48208984 3.39275391 1.9375 3.375 C0.92558594 3.36597656 -0.08632812 3.35695312 -1.12890625 3.34765625 C-2.30259766 3.33025391 -2.30259766 3.33025391 -3.5 3.3125 C-3.57294785 3.90718582 -3.64589569 4.50187164 -3.72105408 5.11457825 C-4.47984029 11.29535285 -5.2429324 17.47558491 -6.00854492 23.65551758 C-6.29383399 25.96299788 -6.57801905 28.27061495 -6.86108398 30.57836914 C-7.26777704 33.89245462 -7.67841752 37.20603047 -8.08984375 40.51953125 C-8.21592514 41.5539888 -8.34200653 42.58844635 -8.47190857 43.6542511 C-8.59195755 44.6150206 -8.71200653 45.5757901 -8.83569336 46.56567383 C-8.9400621 47.41172684 -9.04443085 48.25777985 -9.15196228 49.12947083 C-9.5 51.3125 -9.5 51.3125 -10.5 54.3125 C-10.71282313 55.9372656 -10.88680032 57.56730348 -11.03515625 59.19921875 C-11.12216797 60.13701172 -11.20917969 61.07480469 -11.29882812 62.04101562 C-11.4293457 63.50571289 -11.4293457 63.50571289 -11.5625 65 C-11.65337891 65.98806641 -11.74425781 66.97613281 -11.83789062 67.99414062 C-12.06177679 70.43332148 -12.28235239 72.87275587 -12.5 75.3125 C-12.83 75.3125 -13.16 75.3125 -13.5 75.3125 C-18.73699909 55.79844385 -19.42800208 32.44135217 -12.5 13.3125 C-12.15324219 12.30058594 -11.80648437 11.28867188 -11.44921875 10.24609375 C-9.02442206 3.66450273 -7.62211937 -0.13318219 0 0 Z " fill="#F4E9AE" transform="translate(111.5,140.6875)"/>
<path d="M0 0 C3.55591802 1.30908132 6.55490999 2.87260441 9.6875 5 C10.45449219 5.515625 11.22148437 6.03125 12.01171875 6.5625 C14 8 14 8 16 10 C16.333728 13.13704316 16.52849028 15.16554166 14.8125 17.875 C12.45076295 19.34090576 10.73246924 19.08049828 8 19 C8.36776794 28.83779237 10.26938587 36.54824864 17 44 C11.99166746 43.52301595 8.89375397 42.20153104 5 39 C1.65167566 33.85175483 1.62845664 29.54270187 1.8125 23.625 C1.83280273 22.37783203 1.83280273 22.37783203 1.85351562 21.10546875 C1.88860941 19.07002934 1.94240772 17.03492709 2 15 C3.98 14.34 5.96 13.68 8 13 C8.33 11.35 8.66 9.7 9 8 C8.01 7.34 7.02 6.68 6 6 C4.51721428 8.43536322 3.03866643 10.87312937 1.5625 13.3125 C1.14162109 14.00279297 0.72074219 14.69308594 0.28710938 15.40429688 C-0.11572266 16.07138672 -0.51855469 16.73847656 -0.93359375 17.42578125 C-1.30540771 18.03848877 -1.67722168 18.65119629 -2.06030273 19.2824707 C-3.14978651 21.15281357 -3.14978651 21.15281357 -4 24 C-7.45925163 22.7508258 -10.14693203 21.32472205 -13 19 C-12.01 18.67 -11.02 18.34 -10 18 C-8.52862394 15.74777487 -7.2146266 13.54508992 -5.9375 11.1875 C-5.58623047 10.55779297 -5.23496094 9.92808594 -4.87304688 9.27929688 C-3.17581936 6.22172065 -1.52904083 3.14522906 0 0 Z " fill="#B1850A" transform="translate(272,32)"/>
<path d="M0 0 C0.78117187 -0.01998047 1.56234375 -0.03996094 2.3671875 -0.06054688 C7.72315988 -0.05603848 10.74501301 0.92279063 15 4.4375 C19.63548587 9.57411948 20.14407811 13.40421857 20.0625 20.125 C20.05798828 20.82689453 20.05347656 21.52878906 20.04882812 22.25195312 C20.03706927 23.98050538 20.01913454 25.70901365 20 27.4375 C19.34 27.4375 18.68 27.4375 18 27.4375 C17.91363281 26.19613281 17.82726562 24.95476562 17.73828125 23.67578125 C17.59753592 22.03375244 17.45554304 20.39183024 17.3125 18.75 C17.23225586 17.52506836 17.23225586 17.52506836 17.15039062 16.27539062 C16.75125896 11.98906366 16.32996792 9.87358826 13.66796875 6.35546875 C11.00632953 4.04836031 11.00632953 4.04836031 7 4.4375 C7.474375 5.159375 7.94875 5.88125 8.4375 6.625 C13.87003151 16.40355672 10.8234009 30.674474 10 41.4375 C9.34 41.4375 8.68 41.4375 8 41.4375 C7.93268677 40.15903198 7.93268677 40.15903198 7.86401367 38.85473633 C7.69021917 35.67643954 7.50431102 32.49914349 7.31030273 29.32202148 C7.22898123 27.94990305 7.1524176 26.57749367 7.08081055 25.20483398 C6.97672072 23.22569147 6.85378779 21.24756871 6.73046875 19.26953125 C6.66239014 18.08077393 6.59431152 16.8920166 6.52416992 15.66723633 C5.80607079 11.24258175 4.13809733 8.57559733 1 5.4375 C-2.41022305 5.52724271 -3.69988871 6.13517387 -6.1171875 8.5703125 C-8.36541364 11.99395978 -8.58588219 14.18808427 -8.75 18.25 C-8.80671875 19.41144531 -8.8634375 20.57289063 -8.921875 21.76953125 C-8.94765625 22.64996094 -8.9734375 23.53039062 -9 24.4375 C-9.66 24.4375 -10.32 24.4375 -11 24.4375 C-11.10883596 22.06124823 -11.18766696 19.69006024 -11.25 17.3125 C-11.30027344 16.31476563 -11.30027344 16.31476563 -11.3515625 15.296875 C-11.45638928 9.95070929 -10.19826227 7.47939838 -7 3.4375 C-10.53508103 3.73209009 -11.76203444 4.18631413 -14.25 6.8125 C-16.92084045 10.81876068 -17.16134845 13.91853147 -17.31640625 18.63671875 C-17.35830078 19.84521484 -17.40019531 21.05371094 -17.44335938 22.29882812 C-17.50233398 24.1927832 -17.50233398 24.1927832 -17.5625 26.125 C-17.60568359 27.39923828 -17.64886719 28.67347656 -17.69335938 29.98632812 C-17.7995486 33.13660852 -17.90159533 36.28696839 -18 39.4375 C-18.99 39.4375 -19.98 39.4375 -21 39.4375 C-21.05831395 35.39589444 -21.09370212 31.35439795 -21.125 27.3125 C-21.14175781 26.17039063 -21.15851563 25.02828125 -21.17578125 23.8515625 C-21.18222656 22.74296875 -21.18867187 21.634375 -21.1953125 20.4921875 C-21.20578613 19.47624512 -21.21625977 18.46030273 -21.22705078 17.41357422 C-20.79202308 11.71143695 -18.98261136 7.53073945 -15 3.4375 C-9.94143219 0.26439838 -5.78934712 -0.05254358 0 0 Z " fill="#506C40" transform="translate(149,119.5625)"/>
<path d="M0 0 C-0.54140625 0.96099609 -0.54140625 0.96099609 -1.09375 1.94140625 C-3.8561725 7.09025486 -5.93993105 11.00793956 -5 17 C-4.13353917 20.00155751 -4.13353917 20.00155751 -2 22 C1.5 22.75 1.5 22.75 5 22 C7.81298371 19.28078242 8.91975784 16.47739976 9.1328125 12.5546875 C9.13023437 11.67039062 9.12765625 10.78609375 9.125 9.875 C9.12757813 8.98554688 9.13015625 8.09609375 9.1328125 7.1796875 C9.24301985 5.02208912 9.24301985 5.02208912 8 4 C6.00041636 3.95919217 3.99954746 3.95745644 2 4 C1.34 5.65 0.68 7.3 0 9 C-1.01329656 6.42069966 -1.11938461 5.31551646 -0.125 2.6875 C2.41221915 0.6726495 3.21742768 0.74804566 6.375 0.9375 C10.9311451 1.64244102 13.0947877 3.36848462 16 7 C16.33 7.33 16.66 7.66 17 8 C17.53798008 12.08096316 17.93436984 16.24979978 15.953125 19.9609375 C14.18450419 22.09368613 12.48958097 23.75520951 10 25 C2.51658298 25.69269869 -2.90070212 25.54203034 -9 21 C-12.28620848 18.26149293 -12.90769439 15.97843951 -13.3125 11.6875 C-12.94227165 7.31880542 -11.74219139 5.36897799 -9 2 C-5.5647952 -0.29013653 -4.014669 -0.17842973 0 0 Z " fill="#B2870D" transform="translate(228,16)"/>
<path d="M0 0 C4 2 4 2 6 4 C6.94455795 11.42152677 4.23882533 16.44523445 1 23 C-2.06133965 29.4096799 -2.35117509 34.92447228 -2 42 C-4.82730367 40.73561575 -5.93888738 40.08429326 -7.8125 37.5 C-9.60622555 32.21322996 -8.88725268 27.13607551 -7.37890625 21.8046875 C-7.25386719 21.20914063 -7.12882812 20.61359375 -7 20 C-8.10338257 18.14646548 -8.10338257 18.14646548 -10 17 C-11.32 17 -12.64 17 -14 17 C-14.66 17.66 -15.32 18.32 -16 19 C-16.99 17.68 -17.98 16.36 -19 15 C-13.06 13.02 -7.12 11.04 -1 9 C-0.67 6.03 -0.34 3.06 0 0 Z " fill="#B2860C" transform="translate(312,59)"/>
<path d="M0 0 C0.99 0.33 1.98 0.66 3 1 C3 1.33 3 1.66 3 2 C3.33 1.67 3.66 1.34 4 1 C6.9375 0.8125 6.9375 0.8125 10 1 C12.48002593 3.48002593 12.29694693 4.32832513 12.3125 7.75 C12.20947251 13.23423277 10.94023202 17.05976798 7 21 C0.8045977 21.56321839 0.8045977 21.56321839 -1.875 19.6875 C-4.39249859 15.91125211 -4.36089509 12.4029201 -4 8 C-2.88005064 5.20257191 -1.51424234 2.60260402 0 0 Z " fill="#F8F8E8" transform="translate(226,18)"/>
<path d="M0 0 C2.31 0 4.62 0 7 0 C7.33 3.3 7.66 6.6 8 10 C8.66 7.03 9.32 4.06 10 1 C12.31 1 14.62 1 17 1 C16.58169634 8.22124213 16.04538889 15.04567778 14 22 C13.01 22 12.02 22 11 22 C11 19.03 11 16.06 11 13 C10.01 15.97 9.02 18.94 8 22 C7.01 22 6.02 22 5 22 C4.67 18.04 4.34 14.08 4 10 C3.34 13.63 2.68 17.26 2 21 C1.01 21 0.02 21 -1 21 C-1.10808032 13.90272572 -0.93854006 7.03905044 0 0 Z " fill="#496141" transform="translate(165,347)"/>
<path d="M0 0 C-0.33 1.32 -0.66 2.64 -1 4 C-1.928125 3.979375 -2.85625 3.95875 -3.8125 3.9375 C-7.02286011 3.84230396 -7.02286011 3.84230396 -10 5 C-9.67 5.99 -9.34 6.98 -9 8 C-6.3715992 8.88741832 -6.3715992 8.88741832 -3.25 9.4375 C5.19915254 11.39891041 5.19915254 11.39891041 8 15 C8.63320617 18.4193133 8.77230001 20.68444713 6.97265625 23.75 C4.82537284 26.46510607 3.30917859 27.89694047 0 29 C-7.27797834 29.57761733 -7.27797834 29.57761733 -10.5 27 C-10.995 26.34 -11.49 25.68 -12 25 C-11.67 24.01 -11.34 23.02 -11 22 C-10.61199219 22.65484375 -10.22398437 23.3096875 -9.82421875 23.984375 C-8.16674709 26.23981033 -8.16674709 26.23981033 -5.51953125 26.390625 C-4.62621094 26.34421875 -3.73289063 26.2978125 -2.8125 26.25 C-1.46091797 26.19585937 -1.46091797 26.19585937 -0.08203125 26.140625 C0.60503906 26.09421875 1.29210937 26.0478125 2 26 C2 24.02 2 22.04 2 20 C1.41992188 19.81824219 0.83984375 19.63648437 0.2421875 19.44921875 C-4.37630033 17.96307168 -8.77322178 16.43039748 -13 14 C-14.43735246 11.12529507 -14.38172649 9.18105412 -14 6 C-10.14053006 1.91350242 -5.60880071 0 0 0 Z " fill="#B2870F" transform="translate(144,19)"/>
<path d="M0 0 C7.40235427 0.4112419 14.63555298 2.63555298 20 8 C19.78937321 10.73814831 19.3897347 12.47591576 17.7421875 14.69140625 C16 16 16 16 13.80078125 16.03125 C7.86792455 14.76458044 2.58661742 13.13508513 -2 9 C-3.1875 6.4375 -3.1875 6.4375 -3 4 C-1.5625 1.6875 -1.5625 1.6875 0 0 Z " fill="#556C4C" transform="translate(347,244)"/>
<path d="M0 0 C2 3 2 3 2.75 5.8125 C2 9 2 9 -0.09375 10.65234375 C-2.68639421 12.21174299 -5.29753712 13.64057928 -8 15 C-8.71414062 15.39316406 -9.42828125 15.78632813 -10.1640625 16.19140625 C-12.73330472 17.32296612 -14.35572071 16.76544927 -17 16 C-19 15 -19 15 -20 12.25 C-20 9 -20 9 -17.5 6.375 C-16.35235069 5.55600777 -15.18440451 4.76487462 -14 4 C-13.43410156 3.60425781 -12.86820313 3.20851563 -12.28515625 2.80078125 C-8.11541958 0.10605347 -4.90885766 -0.67376478 0 0 Z " fill="#5D7455" transform="translate(42,254)"/>
<path d="M0 0 C1.94921875 2.1796875 1.94921875 2.1796875 3.6875 4.875 C4.26886719 5.75929688 4.85023438 6.64359375 5.44921875 7.5546875 C5.96097656 8.36164063 6.47273438 9.16859375 7 10 C7.99 11.485 7.99 11.485 9 13 C8.78982001 15.80239987 8.31043413 17.53434881 6.75 19.875 C5 21 5 21 2.6875 21.125 C-2.39120762 18.99902937 -5.11492053 14.47513245 -7.875 9.875 C-9.03650073 6.90672035 -9.59308026 5.13485279 -9 2 C-6.04628479 -1.28190579 -4.07419284 -1.37857885 0 0 Z " fill="#4E6646" transform="translate(290,320)"/>
<path d="M0 0 C2.5625 0.25 2.5625 0.25 5.5625 2.25 C5.29462864 10.68794779 2.54601498 16.26648502 -3.4375 22.25 C-6.73464793 21.92028521 -8.0601839 21.6273161 -10.4375 19.25 C-10.96490946 14.46274487 -9.94247593 11.62225496 -7.5625 7.5 C-6.76199219 6.08460938 -6.76199219 6.08460938 -5.9453125 4.640625 C-3.22714343 0.33098907 -3.22714343 0.33098907 0 0 Z " fill="#4A6342" transform="translate(111.4375,327.75)"/>
<path d="M0 0 C1 2 1 2 0.74609375 5.3203125 C0.66455392 11.65180841 3.60034457 17.1662273 6.0625 22.875 C7.01845943 25.11953689 7.96804209 27.36680416 8.91015625 29.6171875 C9.33433838 30.60315918 9.75852051 31.58913086 10.19555664 32.60498047 C10.46102295 33.39533691 10.72648926 34.18569336 11 35 C10.67 35.66 10.34 36.32 10 37 C1.75 34.36 -6.5 31.72 -15 29 C-13.02 26.69 -11.04 24.38 -9 22 C-4.71 23.65 -0.42 25.3 4 27 C3.3503125 25.65808594 3.3503125 25.65808594 2.6875 24.2890625 C-3.59950914 10.82836686 -3.59950914 10.82836686 -2 3 C-1.34 2.01 -0.68 1.02 0 0 Z " fill="#B1850B" transform="translate(73,46)"/>
<path d="M0 0 C2.875 -0.4375 2.875 -0.4375 6 0 C7.33333333 1.33333333 8.66666667 2.66666667 10 4 C12.49582411 3.90128638 12.49582411 3.90128638 15 3 C15.928125 2.814375 16.85625 2.62875 17.8125 2.4375 C18.534375 2.293125 19.25625 2.14875 20 2 C20.38133299 3.9914056 20.71325582 5.99279077 21 8 C20.67 8.33 20.34 8.66 20 9 C18.30858344 8.91036938 16.62040398 8.75422324 14.9375 8.5625 C14.01839844 8.46066406 13.09929687 8.35882813 12.15234375 8.25390625 C11.44207031 8.17011719 10.73179687 8.08632812 10 8 C10 8.66 10 9.32 10 10 C11.423125 10.2165625 11.423125 10.2165625 12.875 10.4375 C16 11 16 11 18 12 C18 13.32 18 14.64 18 16 C10.78069368 14.55613874 3.94889267 12.42211826 -3 10 C-2.25 3.375 -2.25 3.375 0 0 Z " fill="#4E6645" transform="translate(353,228)"/>
<path d="M0 0 C3.63 0 7.26 0 11 0 C12.4783226 2.95664519 12.06032783 5.74229737 12 9 C11.01 9.495 11.01 9.495 10 10 C10.99 10.66 11.98 11.32 13 12 C13.1875 15.125 13.1875 15.125 13 18 C13.99 17.67 14.98 17.34 16 17 C16 17.99 16 18.98 16 20 C14.0085944 20.38133299 12.00720923 20.71325582 10 21 C9 20 9 20 8.5625 16.5 C8.376875 15.345 8.19125 14.19 8 13 C7.34 12.67 6.68 12.34 6 12 C6.33 15.3 6.66 18.6 7 22 C5.35 22 3.7 22 2 22 C1.09166031 19.27498092 0.81640015 17.37766029 0.68359375 14.55078125 C0.64169922 13.70322266 0.59980469 12.85566406 0.55664062 11.98242188 C0.51732422 11.10134766 0.47800781 10.22027344 0.4375 9.3125 C0.39431641 8.41982422 0.35113281 7.52714844 0.30664062 6.60742188 C0.2006478 4.40512656 0.09982779 2.20258338 0 0 Z " fill="#5C7253" transform="translate(203,348)"/>
<path d="M0 0 C4 4.91428571 4 4.91428571 4 8.6875 C2.77538791 11.51941547 1.70188504 12.53326241 -1 14 C-2.32 14 -3.64 14 -5 14 C-5.28875 14.639375 -5.5775 15.27875 -5.875 15.9375 C-7 18 -7 18 -9 19 C-9 19.99 -9 20.98 -9 22 C-10.65 21.67 -12.3 21.34 -14 21 C-13.58578031 16.16743695 -11.53586014 14.17320782 -8 11 C-9.0725 11.70125 -10.145 12.4025 -11.25 13.125 C-13.17578125 14.2421875 -13.17578125 14.2421875 -15 15 C-17.4375 14.25 -17.4375 14.25 -19 13 C-19 12.34 -19 11.68 -19 11 C-17.04402816 9.60287726 -15.0340906 8.28072371 -13 7 C-11.989375 6.319375 -10.97875 5.63875 -9.9375 4.9375 C-2.4516129 0 -2.4516129 0 0 0 Z " fill="#5A7051" transform="translate(49,267)"/>
<path d="M0 0 C-0.33 1.32 -0.66 2.64 -1 4 C-3.31 3.34 -5.62 2.68 -8 2 C-7.34 9.26 -6.68 16.52 -6 24 C-8.64 24 -11.28 24 -14 24 C-14.33 17.07 -14.66 10.14 -15 3 C-19.455 3.495 -19.455 3.495 -24 4 C-24.33 5.98 -24.66 7.96 -25 10 C-25.66 9.34 -26.32 8.68 -27 8 C-26.67028521 4.70285207 -26.3773161 3.3773161 -24 1 C-21.43018341 0.68832888 -18.95409086 0.4873379 -16.375 0.375 C-15.68792969 0.33632812 -15.00085938 0.29765625 -14.29296875 0.2578125 C-9.52465621 0.00731953 -4.77432141 -0.03218644 0 0 Z " fill="#B2870E" transform="translate(194,12)"/>
<path d="M0 0 C3.47599713 1.87792218 6.13475728 3.78904777 8.09375 7.24609375 C8.09375 7.90609375 8.09375 8.56609375 8.09375 9.24609375 C-0.81625 9.24609375 -9.72625 9.24609375 -18.90625 9.24609375 C-16.91746046 4.2741199 -16.10496138 3.1135064 -11.90625 0.24609375 C-7.83524916 -1.11090653 -4.09673298 -1.62022431 0 0 Z " fill="#ECEDE3" transform="translate(197.90625,92.75390625)"/>
<path d="M0 0 C1.51012131 2.76543196 3.00630148 5.53816807 4.5 8.3125 C4.92925781 9.09818359 5.35851562 9.88386719 5.80078125 10.69335938 C6.40986328 11.8293457 6.40986328 11.8293457 7.03125 12.98828125 C7.40830078 13.68477783 7.78535156 14.38127441 8.17382812 15.09887695 C9 17 9 17 9 20 C7.68 20.33 6.36 20.66 5 21 C2 15.25 2 15.25 2 13 C1.34 13 0.68 13 0 13 C0.515625 14.0725 1.03125 15.145 1.5625 16.25 C2.63240282 18.71477612 3.03572782 19.72132303 2.6875 22.4375 C2.460625 22.953125 2.23375 23.46875 2 24 C1.01 24 0.02 24 -1 24 C-2.51012131 21.23456804 -4.00630148 18.46183193 -5.5 15.6875 C-5.92925781 14.90181641 -6.35851562 14.11613281 -6.80078125 13.30664062 C-7.20683594 12.54931641 -7.61289062 11.79199219 -8.03125 11.01171875 C-8.40830078 10.31522217 -8.78535156 9.61872559 -9.17382812 8.90112305 C-10 7 -10 7 -10 4 C-8.68 3.67 -7.36 3.34 -6 3 C-3 8.75 -3 8.75 -3 11 C-2.34 10.34 -1.68 9.68 -1 9 C-1.495 8.05125 -1.99 7.1025 -2.5 6.125 C-4 3 -4 3 -4 1 C-2 0 -2 0 0 0 Z " fill="#4C6444" transform="translate(275,327)"/>
<path d="M0 0 C3.65316671 1.24976756 4.78065836 1.67098753 7 5 C7.1953125 7.91796875 7.1953125 7.91796875 7.125 11.1875 C7.10695312 12.27417969 7.08890625 13.36085937 7.0703125 14.48046875 C7.03550781 15.72763672 7.03550781 15.72763672 7 17 C4.35541621 18.32229189 2.32238699 18.09677194 -0.625 18.0625 C-1.62789062 18.05347656 -2.63078125 18.04445312 -3.6640625 18.03515625 C-4.43492187 18.02355469 -5.20578125 18.01195312 -6 18 C-6.55839416 7.34914842 -6.55839416 7.34914842 -3 3 C-1.3125 1.1875 -1.3125 1.1875 0 0 Z " fill="#84B954" transform="translate(237,153)"/>
<path d="M0 0 C0.99 0.33 1.98 0.66 3 1 C2.30058404 4.14737182 1.23921302 7.02588876 0 10 C2.87420123 7.28395285 2.87420123 7.28395285 5 4 C6.32 4.33 7.64 4.66 9 5 C7.41467191 9.55564061 5.00996919 13.31475769 2.375 17.3125 C1.95476562 17.95767578 1.53453125 18.60285156 1.1015625 19.26757812 C0.07161759 20.84760724 -0.96365628 22.42416047 -2 24 C-3.32 23.34 -4.64 22.68 -6 22 C-4.35 19.03 -2.7 16.06 -1 13 C-1.99 13 -2.98 13 -4 13 C-4.268125 13.78375 -4.53625 14.5675 -4.8125 15.375 C-6 18 -6 18 -9 20 C-9.66 19.67 -10.32 19.34 -11 19 C-10.53952805 13.8760249 -7.9210675 10.6724299 -4.9375 6.6875 C-4.46505859 6.04232422 -3.99261719 5.39714844 -3.50585938 4.73242188 C-2.34490296 3.14929949 -1.17347664 1.57386431 0 0 Z " fill="#4A6342" transform="translate(95,318)"/>
<path d="M0 0 C0.2371875 0.50273438 0.474375 1.00546875 0.71875 1.5234375 C2.50511381 4.97634804 4.50127326 8.2916602 6.5 11.625 C6.90347656 12.305625 7.30695313 12.98625 7.72265625 13.6875 C9.32549961 16.36419551 10.78476934 18.78476934 13 21 C10.36 22.65 7.72 24.3 5 26 C4.649375 25.071875 4.29875 24.14375 3.9375 23.1875 C1.63136795 17.74681952 -1.75559386 12.91549752 -5 8 C-5.99 8.33 -6.98 8.66 -8 9 C-8.33 9.99 -8.66 10.98 -9 12 C-8.01 12.33 -7.02 12.66 -6 13 C-7.9375 13.5625 -7.9375 13.5625 -10 14 C-11 13 -11 13 -11.40625 10.70703125 C-11 8 -11 8 -8.59375 5.76171875 C-7.5728125 5.07722656 -6.551875 4.39273438 -5.5 3.6875 C-4.4790625 2.99011719 -3.458125 2.29273438 -2.40625 1.57421875 C-1.21515625 0.79498047 -1.21515625 0.79498047 0 0 Z " fill="#B38810" transform="translate(104,35)"/>
<path d="M0 0 C2.87793751 1.29010992 4.96183917 2.57361806 7 5 C8.18681726 8.56045177 8.09689832 11.43808337 8.0625 15.1875 C8.05347656 16.45980469 8.04445312 17.73210937 8.03515625 19.04296875 C8.02355469 20.01878906 8.01195312 20.99460938 8 22 C4.37 22 0.74 22 -3 22 C-3.08333357 17.1666528 -2.95261487 12.76307437 -2 8 C-1.34 8 -0.68 8 0 8 C0 5.36 0 2.72 0 0 Z " fill="#A8D66D" transform="translate(148,124)"/>
<path d="M0 0 C0.82421875 1.62109375 0.82421875 1.62109375 1 4 C-0.66158469 6.23041548 -2.25682635 8.09316455 -4.1875 10.0625 C-4.9309668 10.85624023 -4.9309668 10.85624023 -5.68945312 11.66601562 C-8.28236679 14.39593926 -10.89867294 16.86089852 -14 19 C-14.66 17.68 -15.32 16.36 -16 15 C-15.01 13.68 -14.02 12.36 -13 11 C-14.98 11.66 -16.96 12.32 -19 13 C-19.66 11.68 -20.32 10.36 -21 9 C-18.26213439 7.29218266 -15.5080408 5.61250527 -12.75 3.9375 C-11.97269531 3.45216797 -11.19539063 2.96683594 -10.39453125 2.46679688 C-9.26337891 1.78520508 -9.26337891 1.78520508 -8.109375 1.08984375 C-7.07248535 0.45357056 -7.07248535 0.45357056 -6.01464844 -0.19555664 C-3.57996105 -1.16772035 -2.42444493 -0.87707861 0 0 Z " fill="#556C4C" transform="translate(61,284)"/>
<path d="M0 0 C2.31 0 4.62 0 7 0 C9.29612756 14.59681093 9.29612756 14.59681093 9 22 C7.68 22 6.36 22 5 22 C5 20.68 5 19.36 5 18 C4.34 18 3.68 18 3 18 C2.67 19.32 2.34 20.64 2 22 C0.68 22 -0.64 22 -2 22 C-2.29883729 14.52906777 -1.15925507 7.36955011 0 0 Z " fill="#576E4F" transform="translate(189,348)"/>
<path d="M0 0 C6.75 2.75 6.75 2.75 9 5 C8.68572526 8.61415951 8.25946841 12.09496919 6 15 C0.81081081 16.40540541 0.81081081 16.40540541 -2 15 C-2.66 17.31 -3.32 19.62 -4 22 C-5.32 21.67 -6.64 21.34 -8 21 C-7.40925318 16.19279775 -5.9584358 12.0801237 -4 7.6875 C-3.72671875 7.05521484 -3.4534375 6.42292969 -3.171875 5.77148438 C-1.15160714 1.15160714 -1.15160714 1.15160714 0 0 Z " fill="#4B6443" transform="translate(124,334)"/>
<path d="M0 0 C7.3905476 -0.14715692 14.64424835 0.29223008 22 1 C21.67 2.32 21.34 3.64 21 5 C19.35 5 17.7 5 16 5 C16 5.99 16 6.98 16 8 C17.32 8.33 18.64 8.66 20 9 C20 10.32 20 11.64 20 13 C15.38003352 12.34710151 11.11278643 11.22665313 6.6875 9.75 C5.45386719 9.35296875 4.22023438 8.9559375 2.94921875 8.546875 C0 7 0 7 -0.98046875 4.453125 C-1 2 -1 2 0 0 Z " fill="#546B4C" transform="translate(356,214)"/>
<path d="M0 0 C2.94622161 2.63609302 3.90256913 4.18807605 4.375 8.125 C4 11 4 11 2 14 C2.515625 14.4125 3.03125 14.825 3.5625 15.25 C4.2740625 16.11625 4.2740625 16.11625 5 17 C4.6875 19.1875 4.6875 19.1875 4 21 C3.01 21 2.02 21 1 21 C-1.03802989 18.79385477 -2.86382369 16.62195576 -4.6875 14.25 C-5.45416992 13.29867188 -5.45416992 13.29867188 -6.23632812 12.328125 C-6.71908203 11.709375 -7.20183594 11.090625 -7.69921875 10.453125 C-8.14096436 9.88754883 -8.58270996 9.32197266 -9.0378418 8.73925781 C-10 7 -10 7 -10 3 C-6.99307924 -0.23822235 -4.29604209 -0.71600702 0 0 Z " fill="#4A6342" transform="translate(304,310)"/>
<path d="M0 0 C5.51176484 0.22047059 8.10309583 1.44164817 11.8359375 5.234375 C14.52891652 9.31902775 14.11027505 14.08277036 14.0625 18.8125 C14.05347656 19.97394531 14.04445312 21.13539063 14.03515625 22.33203125 C14.02355469 23.21246094 14.01195312 24.09289062 14 25 C11.69 25 9.38 25 7 25 C7 29.62 7 34.24 7 39 C6.67 39 6.34 39 6 39 C6.01571045 37.82812134 6.01571045 37.82812134 6.03173828 36.63256836 C6.07350208 33.06757874 6.09939098 29.50264078 6.125 25.9375 C6.14175781 24.70837891 6.15851563 23.47925781 6.17578125 22.21289062 C6.20886844 16.07521689 6.16105944 10.77082909 4 5 C3.67 4.01 3.34 3.02 3 2 C2.01 1.67 1.02 1.34 0 1 C0 0.67 0 0.34 0 0 Z " fill="#9DC965" transform="translate(153,122)"/>
<path d="M0 0 C4.87814504 2.18303728 9.01890837 4.84916176 11 10 C10.6875 12.3125 10.6875 12.3125 10 14 C9.2575 13.38125 8.515 12.7625 7.75 12.125 C2.95929631 8.4230926 0.17415128 7.48548739 -6 8 C-10.51935582 9.23331953 -14.44083607 10.88573156 -18 14 C-17.73079965 10.14146168 -17.26710588 8.31904314 -14.75 5.3125 C-9.77992575 1.13311938 -6.68298775 -0.90616783 0 0 Z " fill="#F0F2EA" transform="translate(196,81)"/>
<path d="M0 0 C2.9375 0.8125 2.9375 0.8125 4.9375 2.8125 C5.0625 5.9375 5.0625 5.9375 4.9375 8.8125 C3.9475 9.1425 2.9575 9.4725 1.9375 9.8125 C1.2775 9.4825 0.6175 9.1525 -0.0625 8.8125 C0.2675 7.1625 0.5975 5.5125 0.9375 3.8125 C-0.0525 4.3075 -0.0525 4.3075 -1.0625 4.8125 C-1.02769531 5.47636719 -0.99289063 6.14023437 -0.95703125 6.82421875 C-0.83374977 10.84554332 -0.78922962 14.0685973 -2.1875 17.875 C-4.0625 19.8125 -4.0625 19.8125 -7 20.875 C-10.0625 20.8125 -10.0625 20.8125 -12.5 19.1875 C-14.0625 16.8125 -14.0625 16.8125 -14.0625 14.1875 C-13.0625 11.8125 -13.0625 11.8125 -11.125 10.4375 C-9.0625 9.8125 -9.0625 9.8125 -7.0625 10.8125 C-7.7225 12.7925 -8.3825 14.7725 -9.0625 16.8125 C-8.4025 16.4825 -7.7425 16.1525 -7.0625 15.8125 C-6.70336397 12.51208535 -6.61791597 9.23137757 -6.50390625 5.9140625 C-6.0625 2.8125 -6.0625 2.8125 -4.71875 0.88671875 C-3.0625 -0.1875 -3.0625 -0.1875 0 0 Z " fill="#4E6646" transform="translate(84.0625,309.1875)"/>
<path d="M0 0 C3.5625 0.1875 3.5625 0.1875 5.5625 2.1875 C5.6875 4.8125 5.6875 4.8125 5.5625 7.1875 C4.2425 7.1875 2.9225 7.1875 1.5625 7.1875 C1.5625 5.8675 1.5625 4.5475 1.5625 3.1875 C0.9025 3.1875 0.2425 3.1875 -0.4375 3.1875 C0.62125074 6.59062738 1.57152154 9.20103231 3.5625 12.1875 C3.91363132 15.48813438 3.86493074 17.54903511 2.4375 20.5625 C0.5625 22.1875 0.5625 22.1875 -2.5 22.5625 C-5.4375 22.1875 -5.4375 22.1875 -7.4375 20.1875 C-7.5625 16.5625 -7.5625 16.5625 -7.4375 13.1875 C-6.1175 13.1875 -4.7975 13.1875 -3.4375 13.1875 C-3.4375 14.8375 -3.4375 16.4875 -3.4375 18.1875 C-2.7775 18.1875 -2.1175 18.1875 -1.4375 18.1875 C-2.63446316 13.49976096 -2.63446316 13.49976096 -4.625 9.125 C-5.82297669 6.26828635 -5.15715713 4.13155188 -4.4375 1.1875 C-3.4375 0.1875 -3.4375 0.1875 0 0 Z " fill="#4B6343" transform="translate(153.4375,343.8125)"/>
<path d="M0 0 C2.375 0.9375 2.375 0.9375 3.6875 3 C4.0278125 3.9590625 4.0278125 3.9590625 4.375 4.9375 C3.055 5.2675 1.735 5.5975 0.375 5.9375 C0.375 5.2775 0.375 4.6175 0.375 3.9375 C-0.615 3.9375 -1.605 3.9375 -2.625 3.9375 C-1.9723941 6.9895788 -1.9723941 6.9895788 0.1171875 7.96484375 C0.82101562 8.26519531 1.52484375 8.56554687 2.25 8.875 C5.51182232 10.42099837 7.81937053 11.51511517 9.375 14.9375 C9.13425978 18.30786311 8.78701979 19.52548021 6.375 21.9375 C3.4375 22.3125 3.4375 22.3125 0.375 21.9375 C-1.5625 20.125 -1.5625 20.125 -2.625 17.9375 C-2.295 16.9475 -1.965 15.9575 -1.625 14.9375 C0.3125 15.3125 0.3125 15.3125 2.375 15.9375 C2.705 16.5975 3.035 17.2575 3.375 17.9375 C3.18199819 15.9792166 3.18199819 15.9792166 2.375 13.9375 C0.55035037 12.84596538 0.55035037 12.84596538 -1.625 12.125 C-3.8125 11.15234375 -3.8125 11.15234375 -5.625 9.9375 C-6.625 6.1875 -6.625 6.1875 -6.625 2.9375 C-4.29597204 0.78099263 -3.23439697 -0.07700945 0 0 Z " fill="#4A6342" transform="translate(257.625,335.0625)"/>
<path d="M0 0 C2.14201526 3.21302289 2.65325876 4.26709281 2 8 C-0.5 9.8125 -0.5 9.8125 -3 11 C-3.625 9.1875 -3.625 9.1875 -4 7 C-3.34 6.01 -2.68 5.02 -2 4 C-5.52953718 5.17651239 -5.78736494 5.88377544 -7.5625 9 C-9.79724656 12.89862328 -9.79724656 12.89862328 -12 14 C-15 14.25 -15 14.25 -18 14 C-20.30019361 10.54970958 -20.43132515 9.05445642 -20 5 C-17 3 -17 3 -13 3 C-13 4.32 -13 5.64 -13 7 C-13.99 7.33 -14.98 7.66 -16 8 C-16.33 8.66 -16.66 9.32 -17 10 C-14.09744268 9.33655833 -12.39926161 8.54558192 -10.625 6.12109375 C-9.76334759 4.68757084 -8.92509561 3.23966733 -8.11328125 1.77734375 C-5.91078132 -1.73892807 -3.6324345 -1.08973035 0 0 Z " fill="#4A6342" transform="translate(31,227)"/>
<path d="M0 0 C0.928125 0.20625 1.85625 0.4125 2.8125 0.625 C2.4825 1.945 2.1525 3.265 1.8125 4.625 C0.1625 4.295 -1.4875 3.965 -3.1875 3.625 C-2.8575 4.285 -2.5275 4.945 -2.1875 5.625 C-1.36765625 5.59019531 -0.5478125 5.55539062 0.296875 5.51953125 C1.37453125 5.49246094 2.4521875 5.46539062 3.5625 5.4375 C5.16351563 5.38529297 5.16351563 5.38529297 6.796875 5.33203125 C10.1493133 5.6577215 11.47721658 6.23398189 13.8125 8.625 C14.28018561 11.83198706 14.32920894 13.73511239 12.6875 16.5625 C9.88579973 18.15013015 7.84264356 17.36570176 4.8125 16.625 C4.4825 15.305 4.1525 13.985 3.8125 12.625 C7.8125 12.625 7.8125 12.625 9.8125 13.625 C9.4825 12.635 9.1525 11.645 8.8125 10.625 C7.90886719 10.65980469 7.00523437 10.69460938 6.07421875 10.73046875 C4.89472656 10.75753906 3.71523438 10.78460938 2.5 10.8125 C0.74236328 10.86470703 0.74236328 10.86470703 -1.05078125 10.91796875 C-4.1875 10.625 -4.1875 10.625 -6.11328125 9.3046875 C-7.1875 7.625 -7.1875 7.625 -7.0625 4.5625 C-5.80091213 0.32716929 -4.3640069 -0.51341258 0 0 Z " fill="#496241" transform="translate(337.1875,270.375)"/>
<path d="M0 0 C3.96160067 1.54665231 5.98168181 4.04592451 8.625 7.3125 C9.40101563 8.25738281 10.17703125 9.20226562 10.9765625 10.17578125 C12.82938673 12.76186603 13.98479619 15.00351132 15 18 C13.25683594 19.13818359 13.25683594 19.13818359 11 20 C8.98535156 19.21728516 8.98535156 19.21728516 6.890625 17.7890625 C6.13652344 17.28632813 5.38242187 16.78359375 4.60546875 16.265625 C3.43951172 15.45351563 3.43951172 15.45351563 2.25 14.625 C1.45722656 14.09132813 0.66445313 13.55765625 -0.15234375 13.0078125 C-2.1117007 11.68583673 -4.05976262 10.34981289 -6 9 C-5.34 7.68 -4.68 6.36 -4 5 C-0.535 6.98 -0.535 6.98 3 9 C2.319375 8.2575 1.63875 7.515 0.9375 6.75 C-1 4 -1 4 -0.75 1.6875 C-0.5025 1.130625 -0.255 0.57375 0 0 Z " fill="#4C6444" transform="translate(319,289)"/>
<path d="M0 0 C0 1.32 0 2.64 0 4 C-2.31 4.66 -4.62 5.32 -7 6 C-4.36 6.33 -1.72 6.66 1 7 C1 8.32 1 9.64 1 11 C-6.26 11 -13.52 11 -21 11 C-21 9.35 -21 7.7 -21 6 C-16.76846466 4.38432287 -12.52767462 2.80223743 -8.25 1.3125 C-7.53328125 1.06113281 -6.8165625 0.80976563 -6.078125 0.55078125 C-4 0 -4 0 0 0 Z " fill="#496140" transform="translate(26,201)"/>
<path d="M0 0 C-0.42152344 0.48726563 -0.84304687 0.97453125 -1.27734375 1.4765625 C-6.55908443 8.31175633 -6.97588523 14.52365889 -7 23 C-8.98 22.67 -10.96 22.34 -13 22 C-13.57120303 8.92579728 -13.57120303 8.92579728 -10 4 C-6.55779689 0.55779689 -4.77695448 -0.20769367 0 0 Z " fill="#F3EFCF" transform="translate(144,122)"/>
<path d="M0 0 C0.33 0 0.66 0 1 0 C1 1.65 1 3.3 1 5 C1.66 5 2.32 5 3 5 C3 4.01 3 3.02 3 2 C6.85025879 2.60355408 9.86101159 3.76772603 13.3125 5.5625 C14.19550781 6.01753906 15.07851563 6.47257813 15.98828125 6.94140625 C16.98408203 7.46541016 16.98408203 7.46541016 18 8 C18 8.66 18 9.32 18 10 C16.02 10 14.04 10 12 10 C12 10.66 12 11.32 12 12 C14.31 12 16.62 12 19 12 C18.67 12.66 18.34 13.32 18 14 C11.23922761 13.0717792 5.17196952 11.71403472 0 7 C-1.0625 4.3125 -1.0625 4.3125 -1 2 C-0.67 1.34 -0.34 0.68 0 0 Z " fill="#637A59" transform="translate(345,246)"/>
<path d="M0 0 C2.875 -0.125 2.875 -0.125 6 0 C8 2 8 2 8.75 4.75 C8 8 8 8 5.90625 9.65625 C3.31293413 11.21223952 0.70143269 12.6410975 -2 14 C-2.7115625 14.39445312 -3.423125 14.78890625 -4.15625 15.1953125 C-6.70091742 16.30590887 -8.38469613 15.7264733 -11 15 C-11 13.35 -11 11.7 -11 10 C-9.96875 9.896875 -8.9375 9.79375 -7.875 9.6875 C-4.03840561 9.0068139 -1.40677113 7.82222642 2 6 C2.66 6 3.32 6 4 6 C4 5.01 4 4.02 4 3 C2.35 3 0.7 3 -1 3 C-0.67 2.01 -0.34 1.02 0 0 Z " fill="#556C4C" transform="translate(36,255)"/>
<path d="M0 0 C-0.64453125 0.67417969 -1.2890625 1.34835938 -1.953125 2.04296875 C-4.45604378 5.65882661 -4.58708704 7.95457838 -4.75 12.3125 C-4.80671875 13.56675781 -4.8634375 14.82101563 -4.921875 16.11328125 C-4.94765625 17.06589844 -4.9734375 18.01851562 -5 19 C-6.98 19 -8.96 19 -11 19 C-11.86108043 6.10292861 -11.86108043 6.10292861 -8.625 2.25 C-5.18015699 -0.70272258 -4.24890752 -1.27467226 0 0 Z " fill="#7EB351" transform="translate(234,153)"/>
<path d="M0 0 C0 2.64 0 5.28 0 8 C-0.66 8 -1.32 8 -2 8 C-2.33 12.29 -2.66 16.58 -3 21 C-4.65 21 -6.3 21 -8 21 C-9.03307374 7.20655247 -9.03307374 7.20655247 -5.125 2.625 C-2.44827586 0 -2.44827586 0 0 0 Z " fill="#F9F5D1" transform="translate(148,124)"/>
<path d="M0 0 C0.66 0 1.32 0 2 0 C3.49821059 3.37097383 4 5.20442119 4 9 C2.70642578 8.92265625 2.70642578 8.92265625 1.38671875 8.84375 C-2.37689687 9.01738855 -4.77520271 9.94305827 -8.1875 11.5 C-13.70833333 14 -13.70833333 14 -17 14 C-17.33 12.68 -17.66 11.36 -18 10 C-16.10667466 9.18167278 -14.21022267 8.37057732 -12.3125 7.5625 C-10.72888672 6.88380859 -10.72888672 6.88380859 -9.11328125 6.19140625 C-6.38027471 5.14552545 -3.87957663 4.46479252 -1 4 C-0.67 2.68 -0.34 1.36 0 0 Z " fill="#4E6646" transform="translate(34,240)"/>
<path d="M0 0 C1.32 0 2.64 0 4 0 C4.33 0.99 4.66 1.98 5 3 C7.6765702 4.62389971 7.6765702 4.62389971 10.875 6.0625 C14.09175879 7.58561591 17.03543637 9.02362425 20 11 C19.67 11.99 19.34 12.98 19 14 C14.91668322 13.69375124 12.32516308 12.70116871 9 10.4375 C5.53723994 8.12011442 3.24380696 7.46952413 -1 8 C-2.2077558 4.37673261 -1.54311128 3.35853631 0 0 Z " fill="#5D7352" transform="translate(339,258)"/>
<path d="M0 0 C0.33 0.66 0.66 1.32 1 2 C0.21625 2.556875 -0.5675 3.11375 -1.375 3.6875 C-4.91975149 6.81025727 -5.82976896 9.37368094 -6.31884766 14.04614258 C-6.365979 15.70359497 -6.365979 15.70359497 -6.4140625 17.39453125 C-6.45273438 18.59658203 -6.49140625 19.79863281 -6.53125 21.03710938 C-6.5621875 22.28298828 -6.593125 23.52886719 -6.625 24.8125 C-6.66367188 26.07771484 -6.70234375 27.34292969 -6.7421875 28.64648438 C-6.83630657 31.76417851 -6.92194361 34.88186914 -7 38 C-7.99 38 -8.98 38 -10 38 C-10.05831395 33.95839444 -10.09370212 29.91689795 -10.125 25.875 C-10.14175781 24.73289063 -10.15851563 23.59078125 -10.17578125 22.4140625 C-10.18222656 21.30546875 -10.18867187 20.196875 -10.1953125 19.0546875 C-10.20578613 18.03874512 -10.21625977 17.02280273 -10.22705078 15.97607422 C-9.78941448 10.2397447 -7.9372408 6.1688432 -4 2 C-1.75 0.6875 -1.75 0.6875 0 0 Z " fill="#657653" transform="translate(138,121)"/>
<path d="M0 0 C0 0.99 0 1.98 0 3 C-0.66 3 -1.32 3 -2 3 C-1.67 4.093125 -1.34 5.18625 -1 6.3125 C0.32985532 11.52890432 0.17693984 16.65248469 0 22 C-0.99 22 -1.98 22 -3 22 C-3.50690584 19.93918639 -4.00524619 17.87626474 -4.5 15.8125 C-4.7784375 14.66394531 -5.056875 13.51539063 -5.34375 12.33203125 C-5.91495385 9.43181171 -6.13283779 6.93903615 -6 4 C-6.99 4 -7.98 4 -9 4 C-9 3.01 -9 2.02 -9 1 C-6.04335481 -0.4783226 -3.25770263 -0.06032783 0 0 Z " fill="#4C6444" transform="translate(228,345)"/>
<path d="M0 0 C3.97799395 1.74283398 7.31642937 4.3227039 10.75 6.9375 C11.35199219 7.38029297 11.95398438 7.82308594 12.57421875 8.27929688 C14.1081107 9.44623735 15.56145217 10.71736414 17 12 C17 12.99 17 13.98 17 15 C12.87792878 15 12.37056219 14.9018058 9.328125 12.59375 C8.66425781 12.09746094 8.00039063 11.60117187 7.31640625 11.08984375 C6.63449219 10.56519531 5.95257813 10.04054688 5.25 9.5 C4.55261719 8.97535156 3.85523438 8.45070313 3.13671875 7.91015625 C1.41804587 6.61526573 -0.29184585 5.30873502 -2 4 C-1.34 2.68 -0.68 1.36 0 0 Z " fill="#4C6544" transform="translate(325,282)"/>
<path d="M0 0 C0 1.32 0 2.64 0 4 C-2.74875682 4.67218507 -5.49880726 5.33792435 -8.25 6 C-9.02730469 6.19078125 -9.80460937 6.3815625 -10.60546875 6.578125 C-11.73662109 6.84882813 -11.73662109 6.84882813 -12.890625 7.125 C-13.58188477 7.29257813 -14.27314453 7.46015625 -14.98535156 7.6328125 C-17 8 -17 8 -21 8 C-21.33 6.68 -21.66 5.36 -22 4 C-7.12131367 -0.2094504 -7.12131367 -0.2094504 0 0 Z " fill="#4D6545" transform="translate(29,217)"/>
<path d="M0 0 C3.51653861 0.31968533 5.53431968 0.62242136 8.3125 2.875 C11.00214893 6.26196531 11.11676309 9.00924175 11.0625 13.1875 C11.05347656 14.08855469 11.04445312 14.98960937 11.03515625 15.91796875 C11.02355469 16.60503906 11.01195312 17.29210937 11 18 C9.35 18 7.7 18 6 18 C5.90203125 17.11957031 5.8040625 16.23914063 5.703125 15.33203125 C5.55359375 14.17058594 5.4040625 13.00914062 5.25 11.8125 C5.11078125 10.66394531 4.9715625 9.51539063 4.828125 8.33203125 C3.91216662 4.64659492 2.55669431 2.7593591 0 0 Z " fill="#EFE8B7" transform="translate(241,152)"/>
<path d="M0 0 C6.93 0 13.86 0 21 0 C21.33 3.3 21.66 6.6 22 10 C13.25 7.25 13.25 7.25 11 5 C12.98 4.01 14.96 3.02 17 2 C11.39 1.67 5.78 1.34 0 1 C0 0.67 0 0.34 0 0 Z " fill="#BEDE8B" transform="translate(211,101)"/>
<path d="M0 0 C0.83265381 0.00523682 1.66530762 0.01047363 2.52319336 0.01586914 C3.42231445 0.0190918 4.32143555 0.02231445 5.24780273 0.02563477 C6.66609375 0.03820312 6.66609375 0.03820312 8.11303711 0.05102539 C9.06243164 0.05553711 10.01182617 0.06004883 10.98999023 0.06469727 C13.34356776 0.07652429 15.69702188 0.09300514 18.05053711 0.11352539 C18.05053711 0.44352539 18.05053711 0.77352539 18.05053711 1.11352539 C9.63553711 1.60852539 9.63553711 1.60852539 1.05053711 2.11352539 C3.03053711 3.10352539 5.01053711 4.09352539 7.05053711 5.11352539 C3.92504121 7.75817577 0.96265444 8.95767254 -2.94946289 10.11352539 C-2.97635505 8.63445647 -2.99580911 7.15525056 -3.01196289 5.67602539 C-3.02356445 4.85231445 -3.03516602 4.02860352 -3.04711914 3.17993164 C-2.91831818 0.45450326 -2.72456284 0.15866271 0 0 Z " fill="#BEDE8A" transform="translate(155.949462890625,100.886474609375)"/>
<path d="M0 0 C1 2 1 2 0.87109375 5.6328125 C0.8114706 10.26249802 2.16915526 13.71048119 4.0625 17.875 C5.11241569 20.23673596 6.08032769 22.58105482 7 25 C6.67 25.66 6.34 26.32 6 27 C5.01 27 4.02 27 3 27 C2.9175 26.360625 2.835 25.72125 2.75 25.0625 C2.07253629 22.29618983 1.20188058 20.3323256 -0.0625 17.8125 C-2.31135889 12.93043179 -2.82550622 8.3177959 -2 3 C-1.34 2.01 -0.68 1.02 0 0 Z " fill="#B89122" transform="translate(73,46)"/>
<path d="M0 0 C5.84337138 1.25215101 8.73102506 4.21899104 12 9 C13.2062252 12.61867559 13.10816918 15.92506251 13.0625 19.6875 C13.05798828 20.38939453 13.05347656 21.09128906 13.04882812 21.81445312 C13.03706927 23.54300538 13.01913454 25.27151365 13 27 C12.34 27 11.68 27 11 27 C10.91363281 25.75863281 10.82726562 24.51726562 10.73828125 23.23828125 C10.59753592 21.59625244 10.45554304 19.95433024 10.3125 18.3125 C10.25900391 17.49587891 10.20550781 16.67925781 10.15039062 15.83789062 C9.74601805 11.49528083 9.38907188 9.4788577 6.5625 6 C4.4060593 4.31692433 2.52370895 3.02817772 0 2 C0 1.34 0 0.68 0 0 Z " fill="#557740" transform="translate(156,120)"/>
<path d="M0 0 C0 1.98 0 3.96 0 6 C3.3 6 6.6 6 10 6 C10 6.33 10 6.66 10 7 C2.08 7 -5.84 7 -14 7 C-12.47914841 3.95829681 -10.09713963 3.62408226 -7 2.375 C-5.906875 1.92898437 -4.81375 1.48296875 -3.6875 1.0234375 C-1 0 -1 0 0 0 Z " fill="#547142" transform="translate(164,106)"/>
<path d="M0 0 C-1.07401108 2.91517292 -1.77810176 4.77810176 -4 7 C-4.5775 6.484375 -5.155 5.96875 -5.75 5.4375 C-7.8563365 3.76946688 -7.8563365 3.76946688 -10.125 4.1875 C-12.19171429 4.94660836 -12.19171429 4.94660836 -14 7 C-14.99 5.68 -15.98 4.36 -17 3 C-15.1096624 2.29753005 -13.21243172 1.61359151 -11.3125 0.9375 C-10.25675781 0.55464844 -9.20101563 0.17179687 -8.11328125 -0.22265625 C-4.90666208 -1.0233052 -3.1313693 -0.9237249 0 0 Z " fill="#B78F1E" transform="translate(310,71)"/>
<path d="M0 0 C1.32 0.99 2.64 1.98 4 3 C3.25 7.75 3.25 7.75 1 10 C-0.98723268 10.70381157 -2.98777953 11.3711811 -5 12 C-5.99 12.495 -5.99 12.495 -7 13 C-5.35821735 8.22390502 -2.73453298 4.20617096 0 0 Z " fill="#F5F3DF" transform="translate(278,37)"/>
<path d="M0 0 C2.875 -0.125 2.875 -0.125 6 0 C8 2 8 2 8.3125 5 C8.1578125 6.485 8.1578125 6.485 8 8 C5 10 5 10 2.875 9.75 C1 9 1 9 0 7 C1.32 6.67 2.64 6.34 4 6 C4 5.01 4 4.02 4 3 C2.35 3 0.7 3 -1 3 C-0.67 2.01 -0.34 1.02 0 0 Z " fill="#516C49" transform="translate(36,255)"/>
<path d="M0 0 C0.99 0.33 1.98 0.66 3 1 C1.79618552 3.49361571 0.54571278 5.68143083 -1 8 C-1.4603764 11.19806665 -1.4603764 11.19806665 -1.625 14.6875 C-1.69976562 15.86699219 -1.77453125 17.04648438 -1.8515625 18.26171875 C-1.90054688 19.16535156 -1.94953125 20.06898438 -2 21 C-2.66 21 -3.32 21 -4 21 C-4.10883596 18.62374823 -4.18766696 16.25256024 -4.25 13.875 C-4.28351563 13.20984375 -4.31703125 12.5446875 -4.3515625 11.859375 C-4.45638928 6.51320929 -3.19826227 4.04189838 0 0 Z " fill="#5D6F50" transform="translate(142,123)"/>
<path d="M0 0 C2.05279359 4.10558718 2.2216942 5.80206685 2.125 10.25 C2.10695312 11.32765625 2.08890625 12.4053125 2.0703125 13.515625 C2.04710937 14.33546875 2.02390625 15.1553125 2 16 C-0.31 16 -2.62 16 -5 16 C-5 12.04 -5 8.08 -5 4 C-4.67 4 -4.34 4 -4 4 C-4 7.63 -4 11.26 -4 15 C-3.01 15 -2.02 15 -1 15 C-0.67 10.05 -0.34 5.1 0 0 Z " fill="#B0BCA7" transform="translate(168,353)"/>
<path d="M0 0 C0.66 0 1.32 0 2 0 C2.38133299 1.9914056 2.71325582 3.99279077 3 6 C2.67 6.33 2.34 6.66 2 7 C-2.09789669 6.62056512 -4.53958935 6.30694043 -8 4 C-5.4345406 1.4345406 -3.52313332 1.45953913 0 1 C0 0.67 0 0.34 0 0 Z " fill="#536A4B" transform="translate(371,230)"/>
<path d="M0 0 C1.32 0 2.64 0 4 0 C4 0.99 4 1.98 4 3 C2.421924 3.84324672 0.8372958 4.67423918 -0.75 5.5 C-2.07257812 6.19609375 -2.07257812 6.19609375 -3.421875 6.90625 C-6 8 -6 8 -10 8 C-10 7.34 -10 6.68 -10 6 C-9.36191406 5.65066406 -8.72382813 5.30132812 -8.06640625 4.94140625 C-7.24011719 4.48636719 -6.41382813 4.03132813 -5.5625 3.5625 C-4.73878906 3.11003906 -3.91507813 2.65757812 -3.06640625 2.19140625 C-1.07691202 1.16337603 -1.07691202 1.16337603 0 0 Z " fill="#CBD5C4" transform="translate(36,258)"/>
<path d="M0 0 C0.66 0 1.32 0 2 0 C1.41892368 3.7602985 0.34800504 6.53035032 -1.5625 9.8125 C-2.01753906 10.60269531 -2.47257812 11.39289063 -2.94140625 12.20703125 C-3.29074219 12.79871094 -3.64007813 13.39039063 -4 14 C-4.66 14 -5.32 14 -6 14 C-5.58742287 8.49897163 -3.45277325 4.23798336 0 0 Z " fill="#E5E9DB" transform="translate(111,332)"/>
<path d="M0 0 C3.57885399 1.19295133 4.18134909 2.24467062 6.25 5.3125 C6.79140625 6.09238281 7.3328125 6.87226563 7.890625 7.67578125 C9 10 9 10 8.671875 12.29296875 C8.45015625 12.85628906 8.2284375 13.41960937 8 14 C6.84299806 12.61341021 5.69982377 11.21527559 4.5625 9.8125 C3.92441406 9.03519531 3.28632813 8.25789063 2.62890625 7.45703125 C0.92823443 4.89174929 0.38169969 3.02671729 0 0 Z " fill="#E8EBDD" transform="translate(285,323)"/>
<path d="M0 0 C3.95820859 0.56545837 6.6659053 1.80902348 10 4 C9.67 4.99 9.34 5.98 9 7 C4.2482602 6.56802365 2.07999946 5.67230705 -1 2 C-0.67 1.34 -0.34 0.68 0 0 Z " fill="#516946" transform="translate(349,265)"/>
<path d="M0 0 C1.65 0.33 3.3 0.66 5 1 C4.42655063 3.86724686 4.1385485 4.8614515 2 7 C-1.125 7.125 -1.125 7.125 -4 7 C-4.33 6.34 -4.66 5.68 -5 5 C-3.68 4.67 -2.36 4.34 -1 4 C-0.67 2.68 -0.34 1.36 0 0 Z " fill="#556C4D" transform="translate(53,305)"/>
<path d="M0 0 C3.85025879 0.60355408 6.86101159 1.76772603 10.3125 3.5625 C11.19550781 4.01753906 12.07851563 4.47257813 12.98828125 4.94140625 C13.65214844 5.29074219 14.31601562 5.64007813 15 6 C15 6.33 15 6.66 15 7 C8.84777564 6.56826496 5.18082051 5.34594658 0 2 C0 1.34 0 0.68 0 0 Z " fill="#DBE0D3" transform="translate(348,248)"/>
<path d="M0 0 C0 2.64 0 5.28 0 8 C-0.33 8 -0.66 8 -1 8 C-1 6.35 -1 4.7 -1 3 C-4.37088267 5.27415287 -4.37088267 5.27415287 -6 9 C-6.22179785 10.89212737 -6.40614015 12.78884472 -6.5625 14.6875 C-6.64628906 15.68136719 -6.73007813 16.67523438 -6.81640625 17.69921875 C-6.87699219 18.45847656 -6.93757812 19.21773437 -7 20 C-7.33 20 -7.66 20 -8 20 C-8.91366594 8.7483731 -8.91366594 8.7483731 -6.734375 4.578125 C-2.83729339 0 -2.83729339 0 0 0 Z " fill="#D5DEB2" transform="translate(148,124)"/>
<path d="M0 0 C1.34096777 2.68193553 1.01150432 5.08407792 0.96875 8.0234375 C1.00227898 10.14414565 1.32910345 11.98731036 2 14 C1.01 14.33 0.02 14.66 -1 15 C-2.23184766 12.53630468 -2.16732342 10.8105499 -2.1875 8.0625 C-2.20167969 7.18722656 -2.21585937 6.31195313 -2.23046875 5.41015625 C-2 3 -2 3 0 0 Z " fill="#BC972C" transform="translate(73,46)"/>
<path d="M0 0 C1.485 0.99 1.485 0.99 3 2 C3.29296875 4.8203125 3.29296875 4.8203125 3.1875 8.125 C3.16042969 9.22070312 3.13335937 10.31640625 3.10546875 11.4453125 C3.07066406 12.28835937 3.03585938 13.13140625 3 14 C2.34 14 1.68 14 1 14 C0.67 9.38 0.34 4.76 0 0 Z " fill="#ECE7B3" transform="translate(241,156)"/>
<path d="M0 0 C0.66 0.33 1.32 0.66 2 1 C-0.31 2.32 -2.62 3.64 -5 5 C-5 5.99 -5 6.98 -5 8 C-5.99 8 -6.98 8 -8 8 C-8.33 6.68 -8.66 5.36 -9 4 C-7.54618103 3.30300448 -6.08677047 2.61766134 -4.625 1.9375 C-3.40683594 1.36322266 -3.40683594 1.36322266 -2.1640625 0.77734375 C-1.44992188 0.52082031 -0.73578125 0.26429688 0 0 Z " fill="#697C60" transform="translate(25,246)"/>
<path d="M0 0 C0.33 0.66 0.66 1.32 1 2 C0.21625 2.556875 -0.5675 3.11375 -1.375 3.6875 C-4.1342791 6.11829349 -4.73446012 7.65535888 -6 11 C-6.99 11.33 -7.98 11.66 -9 12 C-8.49607061 7.59061785 -7.0379639 5.21156184 -4 2 C-1.75 0.6875 -1.75 0.6875 0 0 Z " fill="#949E82" transform="translate(138,121)"/>
<path d="M0 0 C1.65 0.33 3.3 0.66 5 1 C4.67 2.32 4.34 3.64 4 5 C2.35 4.67 0.7 4.34 -1 4 C-0.67 2.68 -0.34 1.36 0 0 Z " fill="#4F6747" transform="translate(375,204)"/>
<path d="M0 0 C-0.33 1.32 -0.66 2.64 -1 4 C-1.94875 3.979375 -2.8975 3.95875 -3.875 3.9375 C-6.90666283 3.77448174 -6.90666283 3.77448174 -9 5 C-9.66 4.34 -10.32 3.68 -11 3 C-9.73160474 2.49384702 -8.46016898 1.99530901 -7.1875 1.5 C-6.12595703 1.08234375 -6.12595703 1.08234375 -5.04296875 0.65625 C-3 0 -3 0 0 0 Z " fill="#BB962B" transform="translate(144,19)"/>
<path d="M0 0 C1.65 0 3.3 0 5 0 C4.67 1.65 4.34 3.3 4 5 C2.68 4.67 1.36 4.34 0 4 C0 2.68 0 1.36 0 0 Z " fill="#486040" transform="translate(234,360)"/>
<path d="M0 0 C0.33 0.99 0.66 1.98 1 3 C-0.65 4.65 -2.3 6.3 -4 8 C-4 4 -4 4 -2 1.75 C-1.01 0.88375 -1.01 0.88375 0 0 Z " fill="#E5E9DB" transform="translate(99,321)"/>
<path d="M0 0 C2.31 0 4.62 0 7 0 C7.33 0.99 7.66 1.98 8 3 C7.34 3 6.68 3 6 3 C5.67 3.66 5.34 4.32 5 5 C3.35 3.35 1.7 1.7 0 0 Z " fill="#7D8452" transform="translate(117,263)"/>
<path d="M0 0 C1.74627478 2.61941217 2.38722388 4.03824877 3 7 C1.68 7.33 0.36 7.66 -1 8 C-2.2077558 4.37673261 -1.54311128 3.35853631 0 0 Z " fill="#73866A" transform="translate(339,258)"/>
<path d="M0 0 C0 0.66 0 1.32 0 2 C-3.08809695 3.76462683 -4.23312136 4 -8 4 C-8 3.34 -8 2.68 -8 2 C-4.77208445 -0.1519437 -3.71599191 -0.20086443 0 0 Z " fill="#D5DCD0" transform="translate(34,262)"/>
<path d="M0 0 C-0.66 1.98 -1.32 3.96 -2 6 C-4 4.625 -4 4.625 -6 3 C-6 2.34 -6 1.68 -6 1 C-3 0 -3 0 0 0 Z " fill="#F0EBCF" transform="translate(309,72)"/>
<path d="M0 0 C0.33 0 0.66 0 1 0 C1 2.64 1 5.28 1 8 C-0.32 8 -1.64 8 -3 8 C-3 6.68 -3 5.36 -3 4 C-3.66 3.67 -4.32 3.34 -5 3 C-4.01 3 -3.02 3 -2 3 C-1.67 3.66 -1.34 4.32 -1 5 C-0.67 3.35 -0.34 1.7 0 0 Z " fill="#68795F" transform="translate(197,362)"/>
<path d="M0 0 C0.66 0 1.32 0 2 0 C2.33 3.63 2.66 7.26 3 11 C0.2441427 6.86621405 -0.10756445 4.94796454 0 0 Z " fill="#446138" transform="translate(155,126)"/>
<path d="M0 0 C0.66 0 1.32 0 2 0 C5 4.38461538 5 4.38461538 5 7 C4.01 7 3.02 7 2 7 C0.5393715 4.35261084 0 3.10551666 0 0 Z " fill="#E7EADC" transform="translate(275,340)"/>
<path d="M0 0 C0.66 0 1.32 0 2 0 C2 1.65 2 3.3 2 5 C0.02 5.99 0.02 5.99 -2 7 C-1.125 2.25 -1.125 2.25 0 0 Z " fill="#E8EBDD" transform="translate(126,339)"/>
<path d="M0 0 C0.66 0 1.32 0 2 0 C1.75 2.375 1.75 2.375 1 5 C-1.0625 6.3125 -1.0625 6.3125 -3 7 C-2.38722388 4.03824877 -1.74627478 2.61941217 0 0 Z " fill="#EEF0E3" transform="translate(111,332)"/>
<path d="M0 0 C1.32 0.33 2.64 0.66 4 1 C4.33 2.65 4.66 4.3 5 6 C3.0625 5.25 3.0625 5.25 1 4 C0.25 1.875 0.25 1.875 0 0 Z " fill="#E8EBDD" transform="translate(299,314)"/>
<path d="M0 0 C0.66 0 1.32 0 2 0 C2 1.65 2 3.3 2 5 C0.35 5.66 -1.3 6.32 -3 7 C-2.690625 6.401875 -2.38125 5.80375 -2.0625 5.1875 C-0.89790296 2.91043228 -0.89790296 2.91043228 0 0 Z " fill="#47603D" transform="translate(42,258)"/>
<path d="M0 0 C0.66 0 1.32 0 2 0 C1.67 1.32 1.34 2.64 1 4 C-0.65 4.33 -2.3 4.66 -4 5 C-3.67 4.01 -3.34 3.02 -3 2 C-2.01 2 -1.02 2 0 2 C0 1.34 0 0.68 0 0 Z " fill="#D4DACA" transform="translate(18,232)"/>
<path d="M0 0 C0.99 0 1.98 0 3 0 C1.60667426 3.36720387 0.0210714 4.9859524 -3 7 C-1.125 1.125 -1.125 1.125 0 0 Z " fill="#DEE3D3" transform="translate(26,231)"/>
<path d="M0 0 C2.97 0.33 5.94 0.66 9 1 C9 1.33 9 1.66 9 2 C7.35 2 5.7 2 4 2 C3.67 2.66 3.34 3.32 3 4 C2.01 2.68 1.02 1.36 0 0 Z " fill="#ECE8C2" transform="translate(124,264)"/>
<path d="M0 0 C0.99 0 1.98 0 3 0 C3.33 1.98 3.66 3.96 4 6 C3.01 5.67 2.02 5.34 1 5 C0.67 3.35 0.34 1.7 0 0 Z " fill="#485F3F" transform="translate(340,258)"/>
<path d="M0 0 C2.3431213 0.25561323 4.67843403 0.59270772 7 1 C7.33 1.66 7.66 2.32 8 3 C5.36 2.67 2.72 2.34 0 2 C0 1.34 0 0.68 0 0 Z " fill="#E2E9DD" transform="translate(355,252)"/>
<path d="M0 0 C1.9375 0.3125 1.9375 0.3125 4 1 C4.33 1.99 4.66 2.98 5 4 C2.03 3.505 2.03 3.505 -1 3 C-0.67 2.01 -0.34 1.02 0 0 Z " fill="#D6DCCC" transform="translate(355,232)"/>
<path d="M0 0 C1.60031344 3.20062687 0.03173691 5.72271806 -1 9 C-1.99 8.67 -2.98 8.34 -4 8 C-2.87548273 5.0280615 -1.77706209 2.66559313 0 0 Z " fill="#5D7153" transform="translate(104,118)"/>
<path d="M0 0 C2.64 0 5.28 0 8 0 C7.67 1.32 7.34 2.64 7 4 C4.69 3.01 2.38 2.02 0 1 C0 0.67 0 0.34 0 0 Z " fill="#B58C18" transform="translate(186,12)"/>
</svg>
